<?xml version="1.0" encoding="UTF-8"?>
<svg version="1.1" xmlns="http://www.w3.org/2000/svg" width="498" height="501">
<path d="M0 0 C11.50167264 1.14850277 24.47792536 9.26468751 32 18 C32 18.66 32 19.32 32 20 C32.66 20 33.32 20 34 20 C34 20.66 34 21.32 34 22 C34.66 22 35.32 22 36 22 C37.67536891 23.92245569 39.2221313 25.83972 40.75 27.875 C41.42760376 28.77508789 41.42760376 28.77508789 42.11889648 29.69335938 C55.27223674 47.37265623 62.16544219 67.94670489 68 89 C68.39614502 90.38034424 68.39614502 90.38034424 68.80029297 91.78857422 C72.94623751 106.33399374 75.35996175 120.907593 77.17626953 135.89550781 C78.32864309 145.10761315 79.79171427 153.45492854 85.25 161.1875 C87.51737269 164.83149182 87.50366503 166.75482334 87 171 C86.51426012 172.2657161 86.00979657 173.52432287 85.4921875 174.77734375 C83.22045474 181.4487357 83.59137529 188.28446021 83.6875 195.25 C83.69818977 196.68351215 83.70885031 198.11702453 83.71948242 199.55053711 C83.89487256 216.05016268 85.44733557 231.88741081 89 248 C89.43909698 250.33303333 89.87654843 252.66637687 90.3125 255 C94.46020829 276.23307421 94.46020829 276.23307421 102.8984375 295.98828125 C104 298 104 298 104 300 C104.66 300 105.32 300 106 300 C107.06860995 301.16629452 108.0802998 302.38505932 109.0625 303.625 C113.46640872 308.81203057 119.0710451 313.86185037 126 315 C128.30956935 315.14314375 130.62368873 315.22036741 132.9375 315.25 C134.14277344 315.27578125 135.34804688 315.3015625 136.58984375 315.328125 C141.0035479 314.90343869 143.52737815 313.56930914 146.546875 310.3515625 C150.02278813 305.60663281 150.02278813 305.60663281 151 300 C149.17770336 297.79074094 149.17770336 297.79074094 147.60546875 296.44921875 C145.70785835 294.73629063 144.01719627 292.90482833 142.3125 291 C141.73113281 290.360625 141.14976562 289.72125 140.55078125 289.0625 C135.50404129 282.35046297 136.36771039 273.97165125 137 266 C138.77670007 258.97831109 144.08306649 253.64510052 149.9609375 249.67578125 C157.31824943 245.77832047 165.85102525 245.80305814 173.83984375 247.66015625 C181.5601379 250.40805756 187.62949932 255.24611656 192 262.1875 C196.37072562 271.91013454 195.47715527 285.23143087 191.9375 295.0625 C188.79954246 301.99103874 184.90972456 310.00448697 179 315 C178.34 315 177.68 315 177 315 C177 315.66 177 316.32 177 317 C176.34 317 175.68 317 175 317 C175 317.66 175 318.32 175 319 C173.35 319.66 171.7 320.32 170 321 C170 321.66 170 322.32 170 323 C160.4774938 330.80570821 146.12211137 334.73316107 134 335 C132.97390625 335.03867187 131.9478125 335.07734375 130.890625 335.1171875 C109.77237126 335.56334779 91.85162434 327.99625199 76.4453125 313.60546875 C68.57467442 305.2193416 62.62616031 295.49937253 58 285 C57.31744141 283.50146484 57.31744141 283.50146484 56.62109375 281.97265625 C52.86402731 273.19934306 50.07949772 264.12420773 47.3125 255 C46.93182373 253.75428223 46.55114746 252.50856445 46.15893555 251.22509766 C41.71776955 236.29596991 39.26903287 221.10531202 36.98242188 205.72265625 C35.57868432 196.86411828 34.138897 188.98388451 27.6875 182.4375 C25.97222194 180.56195607 25.07699531 179.56953884 24.734375 177.03515625 C25.07996853 173.57257496 25.97317441 171.05472973 27.51806641 167.90283203 C29.32088883 163.70186856 29.44977781 159.89169892 29.43359375 155.3671875 C29.44051239 154.5457576 29.44743103 153.7243277 29.45455933 152.87800598 C29.46838065 150.20994232 29.45576252 147.54302627 29.4375 144.875 C29.43479095 143.95917145 29.43208191 143.0433429 29.42929077 142.09976196 C29.35611151 125.7651189 27.87483384 110.0963359 25 94 C24.57448845 91.49757116 24.15002981 88.99496308 23.7265625 86.4921875 C22.55115774 79.64836317 21.291383 72.82274917 20 66 C19.8570752 65.22011719 19.71415039 64.44023437 19.56689453 63.63671875 C16.90043199 49.12894335 12.30093467 32.15418394 0 23 C-0.93290869 20.20127394 -1.12859447 18.48011055 -1.1328125 15.5859375 C-1.13410156 14.74289063 -1.13539063 13.89984375 -1.13671875 13.03125 C-1.13285156 12.1546875 -1.12898438 11.278125 -1.125 10.375 C-1.12886719 9.49070312 -1.13273437 8.60640625 -1.13671875 7.6953125 C-1.13542969 6.85484375 -1.13414062 6.014375 -1.1328125 5.1484375 C-1.13168457 4.37677246 -1.13055664 3.60510742 -1.12939453 2.81005859 C-1 1 -1 1 0 0 Z " fill="#F4F3F2" transform="translate(276,94)"/>
<path d="M0 0 C-0.08378906 0.96679688 -0.16757813 1.93359375 -0.25390625 2.9296875 C-0.97485237 11.75532954 -0.97485237 11.75532954 -0.25 20.5625 C0.23607576 24.35139824 0.20264366 24.70795473 -2.125 28.0625 C-2.59252686 28.52865723 -3.06005371 28.99481445 -3.54174805 29.47509766 C-9.24459563 35.43859774 -11.47078603 43.80966928 -13.5625 51.5625 C-14.00855591 53.18647705 -14.00855591 53.18647705 -14.46362305 54.84326172 C-17.45600722 66.10650114 -19.35199846 77.4749906 -21 89 C-21.20335654 90.33089318 -21.40765174 91.66164361 -21.61328125 92.9921875 C-22.14788345 96.65686515 -22.59380014 100.31881374 -23 104 C-23.09023437 104.80679199 -23.18046875 105.61358398 -23.2734375 106.44482422 C-24.57258953 118.47295308 -25.23344074 130.49798769 -25.35247803 142.59207153 C-25.36724607 143.96607995 -25.38838509 145.34003788 -25.41656494 146.71383667 C-25.5755471 155.22409674 -24.73633097 162.29928698 -21.76416016 170.30395508 C-20.9679815 173.11296495 -20.94829904 174.32485044 -22 177 C-22.73118716 178.17153036 -23.50604474 179.31645229 -24.3125 180.4375 C-30.84870844 190.6742836 -32.14379251 203.47100841 -34 215.25 C-39.24151086 248.19354555 -46.9307873 285.43669789 -71 310 C-71.77601563 310.8971875 -72.55203125 311.794375 -73.3515625 312.71875 C-83.80412193 324.32493639 -99.80126999 330.91874011 -115.27685547 332.18652344 C-129.22765215 332.8897296 -141.32184423 331.09401044 -154 325 C-155.46953125 324.29423828 -155.46953125 324.29423828 -156.96875 323.57421875 C-170.81509895 316.23201003 -180.2468999 305.46240856 -186 291 C-186.56847656 289.61361328 -186.56847656 289.61361328 -187.1484375 288.19921875 C-189.51751217 279.29888778 -189.80145356 267.25344734 -185.625 258.9375 C-184.2890625 256.77734375 -184.2890625 256.77734375 -183 255 C-182.34 254.01 -181.68 253.02 -181 252 C-180.34 252 -179.68 252 -179 252 C-179 251.34 -179 250.68 -179 250 C-177.35546875 248.74609375 -177.35546875 248.74609375 -175.1875 247.4375 C-174.12595703 246.78587891 -174.12595703 246.78587891 -173.04296875 246.12109375 C-166.04659436 242.28178314 -155.63857805 243.12435006 -147.9375 244.578125 C-140.76853066 247.04245821 -135.66844679 252.35911772 -131.92358398 258.87207031 C-130.32643171 262.55189565 -130.5899547 266.29042192 -130.5625 270.25 C-130.52962891 271.07113281 -130.49675781 271.89226562 -130.46289062 272.73828125 C-130.40766212 279.0744975 -132.01328511 283.08902451 -136 288 C-138.2734375 290.28515625 -138.2734375 290.28515625 -140.375 292.0625 C-143.62910612 295.15391931 -143.62910612 295.15391931 -144.3125 299.625 C-142.25813257 304.90765911 -139.74341442 307.95395135 -134.875 310.875 C-128.22922554 313.28770508 -121.32097073 312.88849481 -114.9375 310 C-114.22464844 309.62875 -113.51179688 309.2575 -112.77734375 308.875 C-111 308 -111 308 -109 308 C-109 307.34 -109 306.68 -109 306 C-108.175 305.401875 -107.35 304.80375 -106.5 304.1875 C-84.63649724 286.23370597 -83.43229387 245.90046633 -80.8203125 219.98828125 C-77.60414093 193.00059788 -77.60414093 193.00059788 -81.8125 166.5625 C-83.13146096 162.67536986 -83.17101068 162.36735628 -81.3125 158.375 C-80.1678125 157.199375 -80.1678125 157.199375 -79 156 C-78.34 156 -77.68 156 -77 156 C-74.79929549 149.99079473 -73.35528825 144.21020534 -72.5 137.875 C-72.3752832 137.01592041 -72.25056641 136.15684082 -72.12207031 135.27172852 C-71.46878114 130.69993849 -70.89224981 126.12600688 -70.390625 121.53515625 C-68.67657823 106.26309347 -65.23050206 91.76391962 -61 77 C-60.60675537 75.61361328 -60.60675537 75.61361328 -60.20556641 74.19921875 C-57.07345885 63.29711445 -53.2164878 53.07599741 -48 43 C-47.20142578 41.44732422 -47.20142578 41.44732422 -46.38671875 39.86328125 C-40.32928666 28.8037692 -29.29437102 12.28824281 -17 8 C-17 7.34 -17 6.68 -17 6 C-15.54195831 5.18697675 -14.08355685 4.37459869 -12.625 3.5625 C-11.40683594 2.88380859 -11.40683594 2.88380859 -10.1640625 2.19140625 C-6.47067181 0.15804134 -4.25175206 -0.09242939 0 0 Z " fill="#F4F4F2" transform="translate(203,97)"/>
<path d="M0 0 C27.06 0 54.12 0 82 0 C82 4.29 82 8.58 82 13 C81 14 81 14 79.07421875 14.1328125 C78.28660156 14.13023438 77.49898438 14.12765625 76.6875 14.125 C75.51767578 14.12886719 75.51767578 14.12886719 74.32421875 14.1328125 C72.08748461 14.00499912 70.14733021 13.61913869 68 13 C68.495 13.99 68.495 13.99 69 15 C69.16737028 16.45531476 69.2805259 17.91704826 69.36581421 19.37947083 C69.42175247 20.30164398 69.47769073 21.22381714 69.5353241 22.17393494 C69.62104424 23.69815819 69.62104424 23.69815819 69.70849609 25.25317383 C69.77209824 26.32235046 69.83570038 27.3915271 69.90122986 28.49310303 C70.11268722 32.06418623 70.31797943 35.63559827 70.5234375 39.20703125 C70.67133185 41.71956379 70.81966495 44.23207054 70.96841431 46.74455261 C71.3220736 52.73266341 71.67206898 58.72097672 72.02007163 64.709418 C72.66924563 75.87907622 73.32532939 87.04832931 73.98343658 98.21746445 C74.13515712 100.79474694 74.28651897 103.37205057 74.43752289 105.94937515 C75.20889506 119.1055214 75.99939215 132.25940677 76.89550781 145.40771484 C77.00186397 146.97107401 77.00186397 146.97107401 77.11036873 148.5660162 C77.43860767 153.36829311 77.77317111 158.17001517 78.11776733 162.97114563 C78.23632093 164.65999218 78.35415871 166.34888917 78.47119141 168.0378418 C78.52654493 168.8240519 78.58189846 169.61026201 78.63892937 170.42029667 C79.01453359 176.14603594 79.01841265 181.81306597 78.75180054 187.54841614 C78.78805716 190.03992173 78.78805716 190.03992173 80.34024048 191.75737 C82.61862823 193.46315505 85.01350189 194.5018491 87.625 195.625 C92.91666667 197.91666667 92.91666667 197.91666667 94 199 C94.99338732 205.75748661 95.78601208 213.19233608 95 220 C94 221 93 222 92 223 C92.40929986 225.05396726 92.40929986 225.05396726 93 227 C91.35 227.66 89.7 228.32 88 229 C89.10281127 230.27200971 90.20730769 231.54255853 91.3125 232.8125 C91.92738281 233.52019531 92.54226563 234.22789062 93.17578125 234.95703125 C94.73334335 236.70136739 96.32658875 238.36778041 98 240 C97.34 242.31 96.68 244.62 96 247 C91.85418113 247.02886751 87.70838784 247.04675327 83.5625 247.0625 C82.37849609 247.07087891 81.19449219 247.07925781 79.97460938 247.08789062 C78.84990234 247.09111328 77.72519531 247.09433594 76.56640625 247.09765625 C75.00321655 247.10551147 75.00321655 247.10551147 73.40844727 247.11352539 C71 247 71 247 70 246 C69.76470588 240.47058824 69.76470588 240.47058824 71 238 C72.65 238.33 74.3 238.66 76 239 C76 238.34 76 237.68 76 237 C64.23971918 232.64434044 52.78461002 231.56832469 40.3125 231.5625 C39.60810791 231.55943848 38.90371582 231.55637695 38.17797852 231.55322266 C27.43632738 231.54099539 17.88713154 232.44671574 8 237 C8.99 237.99 9.98 238.98 11 240 C10.34 242.31 9.68 244.62 9 247 C5.20839703 247.05786668 1.41690689 247.09355054 -2.375 247.125 C-3.45523438 247.14175781 -4.53546875 247.15851563 -5.6484375 247.17578125 C-6.6796875 247.18222656 -7.7109375 247.18867188 -8.7734375 247.1953125 C-9.72653809 247.20578613 -10.67963867 247.21625977 -11.66162109 247.22705078 C-14 247 -14 247 -16 245 C-16.4375 242.0625 -16.4375 242.0625 -16 239 C-13.75 237.5 -13.75 237.5 -11 236 C-10.319375 234.96875 -9.63875 233.9375 -8.9375 232.875 C-7 230 -7 230 -4.75 229.125 C-4.1725 229.08375 -3.595 229.0425 -3 229 C-3 228.34 -3 227.68 -3 227 C-3.763125 227.061875 -4.52625 227.12375 -5.3125 227.1875 C-8 227 -8 227 -9.59375 225.86328125 C-13.8786406 220.1858012 -13.55458837 209.23983168 -13.36328125 202.3125 C-13 200 -13 200 -11.125 197 C-8.22259347 195.14245982 -6.07254496 194.31019173 -2.8046875 193.375 C-1.90476074 193.11460937 -1.00483398 192.85421875 -0.07763672 192.5859375 C0.95079346 192.29589844 0.95079346 192.29589844 2 192 C2.01981934 191.28955536 2.03963867 190.57911072 2.06005859 189.84713745 C2.66624193 168.7347515 3.69668157 147.65968832 4.86462402 126.57183838 C5.22431677 120.07061094 5.5798324 113.56915433 5.93342781 107.06759262 C6.01907643 105.49341521 6.10494447 103.91924972 6.19103813 102.34509659 C6.77133763 91.71477849 7.29401704 81.08476937 7.66394043 70.4446106 C7.8685595 64.88837082 8.29714386 59.39779752 8.9375 53.875 C9.94105187 45.20400408 10.56191549 36.52111531 11.125 27.8125 C11.16938202 27.12645691 11.21376404 26.44041382 11.25949097 25.73358154 C11.51129688 21.82269349 11.75779502 17.91149363 12 14 C11.30132812 14.02320312 10.60265625 14.04640625 9.8828125 14.0703125 C8.51769531 14.09738281 8.51769531 14.09738281 7.125 14.125 C5.76761719 14.15980469 5.76761719 14.15980469 4.3828125 14.1953125 C2 14 2 14 0 12 C0 8.04 0 4.08 0 0 Z M56 14 C55.97207372 16.77090729 55.95273716 19.54151317 55.9375 22.3125 C55.92912109 23.05951172 55.92074219 23.80652344 55.91210938 24.57617188 C55.888733 30.35013655 56.1479099 36.08554287 56.4765625 41.84765625 C57.0125123 51.33696483 57.22632846 60.81760149 57.38842773 70.3196106 C57.68189606 87.09676432 58.24710906 103.83783482 59.13397217 120.59368896 C59.86572212 134.4412432 60.35912935 148.28110114 60.65820312 162.14477539 C60.84553489 170.45827012 61.25865797 178.71619252 62 187 C65.82989106 188.80230168 68.78121808 189.19622241 73 189 C72.71897287 171.97689778 72.23652983 155.14492241 70.16137695 138.23046875 C68.65218611 125.26451883 68.18050484 112.24906575 67.64672852 99.21289062 C67.5915229 97.89185333 67.5915229 97.89185333 67.53520203 96.54412842 C67.46720623 94.89456896 67.40243335 93.24487193 67.34162903 91.59503174 C67.19609667 87.99975321 66.96836271 84.45765943 66.50439453 80.88842773 C66.02414888 77.18616612 65.72450553 73.52642047 65.5 69.80078125 C65.45966644 69.13518692 65.41933289 68.46959259 65.3777771 67.78382874 C65.24856578 65.62689874 65.12390387 63.46974096 65 61.3125 C64.95675598 60.57420959 64.91351196 59.83591919 64.86895752 59.07525635 C63.99326039 44.05735393 63.4254875 29.03735104 63 14 C59.41672247 12.99782936 59.41672247 12.99782936 56 14 Z M18 14 C16.85969765 17.42090705 16.93333387 19.95320074 16.9921875 23.55859375 C17.06524362 31.63747562 16.70906833 39.66669072 16.25537109 47.73120117 C16.12648104 50.03601593 16.0061502 52.34116242 15.88671875 54.64648438 C15.43425889 63.06325031 14.79561613 71.44182045 13.98828125 79.83203125 C13.03800462 89.80979967 12.52568656 99.76785383 12.16546631 109.78244019 C11.47484232 128.84828829 10.49650678 147.89250373 9.375 166.9375 C9.30660919 168.09993225 9.23821838 169.2623645 9.16775513 170.46002197 C8.78344657 176.97364975 8.39401234 183.48695231 8 190 C11.96 189.01 15.92 188.02 20 187 C20.70421602 171.24410295 21.15982099 155.49001679 21.5 139.72265625 C21.52053436 138.77249004 21.54106873 137.82232384 21.56222534 136.84336472 C21.71115033 129.91647213 21.85594843 122.98949539 22 116.0625 C22.16406331 108.17832864 22.33002569 100.29420256 22.5 92.41015625 C22.52031343 91.46257383 22.54062687 90.51499142 22.56155586 89.53869438 C22.8287636 77.18944263 23.19005134 64.85070178 23.68858337 52.50836182 C24.02068966 44.10382141 24.12100286 35.72341047 24.0625 27.3125 C24.05798828 26.00345703 24.05347656 24.69441406 24.04882812 23.34570312 C24.0374168 20.23041105 24.02125884 17.11523746 24 14 C22.02 14 20.04 14 18 14 Z M30 14 C29.2193105 33.34151957 28.82582579 52.68194975 28.50616455 72.03582764 C28.08590496 97.11131649 27.423192 122.17901878 26.728508 147.24818134 C26.6399021 150.4527863 26.55240386 153.65742111 26.46498489 156.86205864 C26.404438 159.06067131 26.34198096 161.25922371 26.27938843 163.45777893 C26.06144691 171.3070412 25.94627217 179.14756504 26 187 C26.834104 186.85618896 27.66820801 186.71237793 28.52758789 186.56420898 C31.51184082 186.04968262 31.51184082 186.04968262 34.49609375 185.53515625 C36.9287438 185.25248903 36.9287438 185.25248903 38 184 C38.10080987 181.30008358 38.1361454 178.62574499 38.12939453 175.92529297 C38.13112419 175.07226184 38.13285385 174.21923071 38.13463593 173.34035015 C38.13902718 170.47427684 38.13603034 167.60826168 38.1328125 164.7421875 C38.13382739 162.7155709 38.1351664 160.68895444 38.1368103 158.66233826 C38.13952417 153.19888381 38.1350247 147.73545749 38.12857056 142.27200699 C38.12501588 138.89010788 38.1233851 135.508213 38.12231445 132.12631226 C38.10681811 92.74424674 37.73663921 53.37496462 37 14 C34.69 14 32.38 14 30 14 Z M43 14 C42.97658096 34.09808145 42.95897674 54.19616011 42.94818783 74.2942524 C42.94304394 83.62732526 42.9360378 92.96038963 42.92456055 102.29345703 C42.91455521 110.43351144 42.90813271 118.57355968 42.90591151 126.71362007 C42.90461429 131.01882623 42.90159162 135.32401476 42.89426994 139.62921524 C42.88741718 143.69210573 42.88540162 147.75497155 42.88689232 151.81786728 C42.88662011 153.29876592 42.88467043 154.77966549 42.88079453 156.26055908 C42.85768652 165.55569077 43.20530008 174.73717637 44 184 C47.89663652 185.68610848 50.73566065 186.19834137 55 186 C55.02995926 182.66668687 55.04710827 179.33340968 55.0625 176 C55.07087891 175.08476562 55.07925781 174.16953125 55.08789062 173.2265625 C55.10630692 167.84900573 54.92441349 162.53029165 54.53881836 157.16625977 C53.78114765 145.77868937 53.56889052 134.37185157 53.28125 122.96484375 C53.21812234 120.55415552 53.1546803 118.14347551 53.09094238 115.73280334 C52.92454098 109.41747 52.76122448 103.10206139 52.59893799 96.78662109 C52.33987973 86.70812003 52.0779901 76.62969625 51.81248474 66.55136299 C51.72160264 63.0739926 51.63321378 59.59656543 51.54504395 56.11912537 C51.18135649 42.07144719 50.66405744 28.03672125 50 14 C47.69 14 45.38 14 43 14 Z M34 199 C32.02 199.99 32.02 199.99 30 201 C29.95745644 202.99954746 29.95919217 205.00041636 30 207 C31.06645115 208.29633621 31.06645115 208.29633621 33.5625 208.0625 C34.366875 208.041875 35.17125 208.02125 36 208 C36.66 206.35 37.32 204.7 38 203 C36.68 201.68 35.36 200.36 34 199 Z M45.4375 200.5 C44.963125 200.995 44.48875 201.49 44 202 C44.66 203.98 45.32 205.96 46 208 C47.65 207.67 49.3 207.34 51 207 C51.86358623 205.21858253 51.86358623 205.21858253 52 203 C50.20808968 200.70784955 50.20808968 200.70784955 48 199 C46.75923698 198.88457803 46.75923698 198.88457803 45.4375 200.5 Z M5.125 210.5625 C3.55285321 213.96881805 4.23905789 216.40281913 5 220 C6.7634375 219.9690625 6.7634375 219.9690625 8.5625 219.9375 C12.47413467 219.93052739 16.14497944 220.35749657 20 221 C20.38937141 217.5930002 20.15388085 216.23631702 18.25 213.3125 C15.35549076 210.33758773 13.52519311 209.22319899 9.4375 208.625 C6.91370804 208.79871968 6.91370804 208.79871968 5.125 210.5625 Z M63 214 C62.60188769 215.98811914 62.2590312 217.98902662 62 220 C64.45873768 219.85941524 66.91685175 219.71277001 69.375 219.5625 C70.07367188 219.52318359 70.77234375 219.48386719 71.4921875 219.44335938 C75.37360492 219.25719866 75.37360492 219.25719866 79 218 C78.81870185 214.56206661 78.81870185 214.56206661 78 211 C75.73680474 209.07209292 74.00025566 209.00003808 71.0625 208.5625 C66.86218333 209.16254524 65.53920563 210.66275832 63 214 Z " fill="#EBEBE9" transform="translate(198,73)"/>
<path d="M0 0 C27.06 0 54.12 0 82 0 C82 4.29 82 8.58 82 13 C81 14 81 14 79.07421875 14.1328125 C78.28660156 14.13023438 77.49898438 14.12765625 76.6875 14.125 C75.51767578 14.12886719 75.51767578 14.12886719 74.32421875 14.1328125 C72.08748461 14.00499912 70.14733021 13.61913869 68 13 C68.495 13.99 68.495 13.99 69 15 C69.27029357 17.98733109 69.48620427 20.96016311 69.66430664 23.95336914 C69.72297409 24.88220413 69.78164154 25.81103912 69.84208679 26.76802063 C70.03591101 29.85680595 70.22325191 32.945945 70.41015625 36.03515625 C70.54301627 38.18877065 70.67611193 40.34237052 70.80943298 42.49595642 C71.08882937 47.02618467 71.36496214 51.55659769 71.63891602 56.0871582 C71.98769574 61.85003988 72.34498759 67.61235526 72.7049036 73.37455082 C72.98231683 77.8331821 73.25477054 82.29210659 73.52584648 86.75112724 C73.65543665 88.87235566 73.78657762 90.99348999 73.91938972 93.11451912 C74.68753533 105.42749145 75.19044879 117.66211532 75 130 C74.67 130 74.34 130 74 130 C71.11105706 111.88263972 70.63315763 94.28568104 71 76 C70.01 76 69.02 76 68 76 C68 83.59 68 91.18 68 99 C67.67 99 67.34 99 67 99 C64.1255295 70.68340766 62.57444556 42.45977161 63 14 C60.69 14 58.38 14 56 14 C56.05534912 14.91547607 56.11069824 15.83095215 56.16772461 16.77416992 C57.30499359 35.95153078 58.15102554 55.10373214 58.5 74.3125 C58.78188632 89.76079721 59.31761411 105.16976571 60.13424683 120.59890747 C60.86590536 134.44471886 61.359167 148.28284625 61.65820312 162.14477539 C61.74545917 166.09750876 61.8657325 170.04855352 62 174 C62.05389893 175.89395508 62.05389893 175.89395508 62.10888672 177.82617188 C62.16447754 179.00244141 62.22006836 180.17871094 62.27734375 181.390625 C62.31980225 182.42735352 62.36226074 183.46408203 62.40600586 184.53222656 C62.60202393 185.3465918 62.79804199 186.16095703 63 187 C64.98 187.99 64.98 187.99 67 189 C62.71 189 58.42 189 54 189 C54 188.34 54 187.68 54 187 C51.03 187 48.06 187 45 187 C45 186.34 45 185.68 45 185 C48.3 185.33 51.6 185.66 55 186 C54.94792389 185.14442001 54.89584778 184.28884003 54.8421936 183.40733337 C53.09295313 154.04669306 52.23076668 124.67673322 51.47198486 95.27600098 C51.34193729 90.29654584 51.2059052 85.31726138 51.06982994 80.33796787 C50.93702138 75.45694705 50.80736343 70.57584638 50.67866898 65.6947155 C50.61807351 63.40547506 50.55670297 61.11625496 50.49445724 58.82705879 C50.09087601 43.8812153 49.9187748 28.95129348 50 14 C47.69 14 45.38 14 43 14 C43 61.85 43 109.7 43 159 C42.67 159 42.34 159 42 159 C40.70414379 144.32948616 40.86854927 129.63873517 40.89860606 114.92498589 C40.90493295 111.29622463 40.90545068 107.66746221 40.90663147 104.03869629 C40.90971763 97.19331485 40.91789374 90.34794971 40.92798096 83.5025754 C40.93922728 75.69824387 40.94467384 67.89391149 40.94967639 60.08957386 C40.96007918 44.05970626 40.97783071 28.02985589 41 12 C44.63 12 48.26 12 52 12 C52.66 32.13 53.32 52.26 54 73 C53.96038804 53.29893661 53.96038804 53.29893661 53.90991211 33.59790039 C53.90699322 31.13948612 53.9044446 28.68107136 53.90234375 26.22265625 C53.89722778 24.9322644 53.89211182 23.64187256 53.88684082 22.31237793 C53.88665955 20.48531311 53.88665955 20.48531311 53.88647461 18.62133789 C53.884254 17.55766495 53.88203339 16.493992 53.87974548 15.39808655 C54 13 54 13 55 12 C57.97 12 60.94 12 64 12 C64.33 18.6 64.66 25.2 65 32 C65.66 32 66.32 32 67 32 C67 25.4 67 18.8 67 12 C71.62 12 76.24 12 81 12 C80.01 10.02 80.01 10.02 79 8 C78.34 8 77.68 8 77 8 C75 6 75 6 74 3 C49.91 2.67 25.82 2.34 1 2 C1 5.3 1 8.6 1 12 C0.67 12 0.34 12 0 12 C0 8.04 0 4.08 0 0 Z " fill="#ACABA8" transform="translate(198,73)"/>
<path d="M0 0 C1.97909398 -0.02686553 3.95828971 -0.04633375 5.9375 -0.0625 C7.03964844 -0.07410156 8.14179688 -0.08570312 9.27734375 -0.09765625 C12 0 12 0 13 1 C13.23363881 2.84891946 13.41303635 4.70488031 13.5625 6.5625 C13.68818359 8.08037109 13.68818359 8.08037109 13.81640625 9.62890625 C13.87699219 10.41136719 13.93757813 11.19382812 14 12 C14.09087891 10.82630859 14.09087891 10.82630859 14.18359375 9.62890625 C14.26738281 8.61699219 14.35117188 7.60507813 14.4375 6.5625 C14.51871094 5.55316406 14.59992188 4.54382813 14.68359375 3.50390625 C15 1 15 1 16 0 C17.63472882 -0.08700342 19.27314055 -0.10701063 20.91015625 -0.09765625 C21.800979 -0.09515869 22.69180176 -0.09266113 23.60961914 -0.09008789 C25.31879517 -0.07643188 25.31879517 -0.07643188 27.0625 -0.0625 C32.4765625 -0.0315625 32.4765625 -0.0315625 38 0 C38 7.92 38 15.84 38 24 C37.34 24 36.68 24 36 24 C36 16.74 36 9.48 36 2 C33.69 2 31.38 2 29 2 C29.00523682 2.62076416 29.01047363 3.24152832 29.01586914 3.88110352 C29.32345503 47.70235915 27.93912794 91.53011463 26.72879124 135.33031273 C26.64022393 138.53916934 26.55262825 141.74805221 26.46504784 144.95693588 C26.40434513 147.16168416 26.34191609 149.36637873 26.27937317 151.57107544 C26.07202389 159.04910771 25.94286156 166.5188702 26 174 C27.65 174 29.3 174 31 174 C28 176 28 176 25.3125 175.625 C24.549375 175.41875 23.78625 175.2125 23 175 C23.02505615 174.16396744 23.0501123 173.32793488 23.07592773 172.46656799 C23.39318947 161.83213971 23.70069779 151.19744902 24 140.5625 C24.0237545 139.71868019 24.047509 138.87486038 24.07198334 138.00547028 C24.8006951 111.99940881 25.31890781 86.01797081 25 60 C20.77497568 68.45004864 22.82581939 83.43664503 22.73963928 92.90893936 C22.71800304 95.27706864 22.69104846 97.64509193 22.66296387 100.01315308 C22.60412985 105.05039101 22.55165423 110.08768405 22.5 115.125 C22.43172305 121.7526611 22.36036066 128.38027105 22.28125 135.0078125 C22.27186401 135.80132362 22.26247803 136.59483475 22.25280762 137.41239166 C22.09864973 149.9567075 21.72390111 162.47405094 21 175 C19.1291963 175.71121463 17.25838103 176.42239883 15.38748169 177.13336182 C13.95757965 177.67719767 12.52829473 178.22265686 11.09936523 178.76904297 C-1.85382245 183.65847102 -1.85382245 183.65847102 -6 182 C-2.535 181.01 -2.535 181.01 1 180 C1.029729 178.93433304 1.029729 178.93433304 1.06005859 177.84713745 C1.66624193 156.7347515 2.69668157 135.65968832 3.86462402 114.57183838 C4.22431677 108.07061094 4.5798324 101.56915433 4.93342781 95.06759262 C5.01907643 93.49341521 5.10494447 91.91924972 5.19103813 90.34509659 C5.77133763 79.71477849 6.29401704 69.08476937 6.66394043 58.4446106 C6.8685595 52.88837082 7.29714386 47.39779752 7.9375 41.875 C8.94105187 33.20400408 9.56191549 24.52111531 10.125 15.8125 C10.16938202 15.12645691 10.21376404 14.44041382 10.25949097 13.73358154 C10.51129688 9.82269349 10.75779502 5.91149363 11 2 C7.7 2 4.4 2 1 2 C0.67 1.34 0.34 0.68 0 0 Z M17 2 C15.85969765 5.42090705 15.93333387 7.95320074 15.9921875 11.55859375 C16.06524362 19.63747562 15.70906833 27.66669072 15.25537109 35.73120117 C15.12648104 38.03601593 15.0061502 40.34116242 14.88671875 42.64648438 C14.43425889 51.06325031 13.79561613 59.44182045 12.98828125 67.83203125 C12.03800462 77.80979967 11.52568656 87.76785383 11.16546631 97.78244019 C10.47484232 116.84828829 9.49650678 135.89250373 8.375 154.9375 C8.30660919 156.09993225 8.23821838 157.2623645 8.16775513 158.46002197 C7.78344657 164.97364975 7.39401234 171.48695231 7 178 C10.96 177.01 14.92 176.02 19 175 C19.70421602 159.24410295 20.15982099 143.49001679 20.5 127.72265625 C20.52053436 126.77249004 20.54106873 125.82232384 20.56222534 124.84336472 C20.71115033 117.91647213 20.85594843 110.98949539 21 104.0625 C21.16406331 96.17832864 21.33002569 88.29420256 21.5 80.41015625 C21.52031343 79.46257383 21.54062687 78.51499142 21.56155586 77.53869438 C21.8287636 65.18944263 22.19005134 52.85070178 22.68858337 40.50836182 C23.02068966 32.10382141 23.12100286 23.72341047 23.0625 15.3125 C23.05798828 14.00345703 23.05347656 12.69441406 23.04882812 11.34570312 C23.0374168 8.23041105 23.02125884 5.11523746 23 2 C21.02 2 19.04 2 17 2 Z " fill="#F0F0EE" transform="translate(199,85)"/>
<path d="M0 0 C9.48343954 -0.06941713 18.96679203 -0.12276888 28.45042992 -0.15543652 C32.85376311 -0.17111294 37.25692288 -0.19238698 41.66015625 -0.22631836 C45.90710791 -0.25884175 50.15389246 -0.27683811 54.40095901 -0.28463173 C56.02374529 -0.29018792 57.64652212 -0.30103743 59.26923752 -0.31719017 C61.5369541 -0.33887178 63.80397431 -0.34197091 66.07177734 -0.34057617 C67.36417328 -0.34723801 68.65656921 -0.35389984 69.98812866 -0.36076355 C71.47900497 -0.18218559 71.47900497 -0.18218559 73 0 C75 3 75 3 76 6 C76.99 5.67 77.98 5.34 79 5 C79.495 7.475 79.495 7.475 80 10 C75.38 10 70.76 10 66 10 C66 16.6 66 23.2 66 30 C65.34 30 64.68 30 64 30 C62.94380997 25.71702469 62.88297908 21.57014354 62.9375 17.1875 C62.94201172 16.49462891 62.94652344 15.80175781 62.95117188 15.08789062 C62.96286844 13.39188932 62.98080076 11.69593297 63 10 C58.545 10.495 58.545 10.495 54 11 C54 31.46 54 51.92 54 73 C51.22227086 70.22227086 51.68840677 68.46361909 51.5859375 64.5703125 C51.5568203 63.58844719 51.5568203 63.58844719 51.52711487 62.58674622 C51.46640291 60.4329654 51.42030911 58.2791557 51.375 56.125 C51.33709488 54.6413465 51.29876111 53.1577039 51.26000977 51.67407227 C50.91801768 37.78300116 50.90161188 23.8945886 51 10 C47.37 10 43.74 10 40 10 C40.01252808 11.54791229 40.02505615 13.09582458 40.03796387 14.69064331 C40.1574548 29.48199053 40.27514887 44.27335092 40.39115143 59.06472588 C40.45079204 66.66392625 40.51102032 74.26312101 40.57275391 81.86230469 C40.84630921 115.57504556 41.09642059 149.28579741 41 183 C40.34 183 39.68 183 39 183 C38.15589113 179.32658053 37.8676527 175.92133082 37.84851074 172.15539551 C37.84016708 170.98618057 37.83182343 169.81696564 37.82322693 168.61231995 C37.81904251 167.3383989 37.81485809 166.06447784 37.81054688 164.75195312 C37.80259902 163.38988492 37.79421063 162.02781922 37.78541565 160.66575623 C37.76739402 157.73782585 37.75236589 154.80990088 37.73963928 151.88194275 C37.7193761 147.25105243 37.69172981 142.62022412 37.66296387 137.98937988 C37.59783645 127.3237919 37.54237185 116.65815774 37.48697662 105.99251556 C37.43609926 96.21587487 37.38318144 86.43925667 37.32245111 76.66267157 C37.29414088 72.06030046 37.27053119 67.45793652 37.25052643 62.85552216 C37.23711914 59.99161776 37.21970809 57.12774779 37.20121574 54.26387215 C37.18978638 52.30515785 37.18320689 50.34641713 37.17677307 48.38768005 C37.16842941 47.21846512 37.16008575 46.04925018 37.15148926 44.84460449 C37.14375866 43.32370838 37.14375866 43.32370838 37.13587189 41.7720871 C37.00411163 39.08388638 36.60190649 36.61939557 36 34 C36.66 34 37.32 34 38 34 C38 26.08 38 18.16 38 10 C34.37 10.33 30.74 10.66 27 11 C24.93820622 11.05785055 22.8749313 11.08928482 20.8125 11.0625 C19.224375 11.041875 17.63625 11.02125 16 11 C15.67 14.96 15.34 18.92 15 23 C14.34 22.67 13.68 22.34 13 22 C12.39616453 18.34850439 12.25493084 14.69649725 12 11 C8.04 10.67 4.08 10.34 0 10 C0 6.7 0 3.4 0 0 Z " fill="#F9F9F7" transform="translate(199,75)"/>
<path d="M0 0 C0.91644287 0.00523682 1.83288574 0.01047363 2.77709961 0.01586914 C3.66792236 0.0183667 4.55874512 0.02086426 5.4765625 0.0234375 C7.18573853 0.03709351 7.18573853 0.03709351 8.92944336 0.05102539 C14.34350586 0.08196289 14.34350586 0.08196289 19.86694336 0.11352539 C19.86694336 8.03352539 19.86694336 15.95352539 19.86694336 24.11352539 C19.20694336 24.11352539 18.54694336 24.11352539 17.86694336 24.11352539 C17.86694336 16.85352539 17.86694336 9.59352539 17.86694336 2.11352539 C15.55694336 2.11352539 13.24694336 2.11352539 10.86694336 2.11352539 C10.87218018 2.73428955 10.87741699 3.35505371 10.8828125 3.99462891 C11.19039839 47.81588454 9.8060713 91.64364002 8.5957346 135.44383812 C8.50716729 138.65269473 8.41957161 141.8615776 8.3319912 145.07046127 C8.27128849 147.27520955 8.20885945 149.47990412 8.14631653 151.68460083 C7.93896725 159.1626331 7.80980491 166.63239559 7.86694336 174.11352539 C9.51694336 174.11352539 11.16694336 174.11352539 12.86694336 174.11352539 C9.86694336 176.11352539 9.86694336 176.11352539 7.17944336 175.73852539 C6.41631836 175.53227539 5.65319336 175.32602539 4.86694336 175.11352539 C4.89199951 174.27749283 4.91705566 173.44146027 4.94287109 172.58009338 C5.26013283 161.9456651 5.56764115 151.31097441 5.86694336 140.67602539 C5.89069786 139.83220558 5.91445236 138.98838577 5.9389267 138.11899567 C6.66763846 112.1129342 7.18585117 86.1314962 6.86694336 60.11352539 C2.64191904 68.56357403 4.69276275 83.55017042 4.60658264 93.02246475 C4.5849464 95.39059403 4.55799182 97.75861732 4.52990723 100.12667847 C4.47107321 105.1639164 4.41859759 110.20120944 4.36694336 115.23852539 C4.29866641 121.86618649 4.22730402 128.49379644 4.14819336 135.12133789 C4.13880737 135.91484901 4.12942139 136.70836014 4.11975098 137.52591705 C3.96559309 150.07023289 3.59084447 162.58757633 2.86694336 175.11352539 C2.20694336 175.11352539 1.54694336 175.11352539 0.86694336 175.11352539 C0.68723268 153.06815913 1.17078601 131.04228411 1.67465973 109.00411224 C1.7425197 106.02572968 1.8092252 103.04732311 1.87567139 100.06890869 C2.60684122 67.40604441 3.56380688 34.75897989 4.86694336 2.11352539 C2.88694336 2.44352539 0.90694336 2.77352539 -1.13305664 3.11352539 C-1.12145508 4.13188477 -1.10985352 5.15024414 -1.09790039 6.19946289 C-1.01642112 16.87452099 -1.43544007 27.46241528 -2.13305664 38.11352539 C-2.46305664 38.11352539 -2.79305664 38.11352539 -3.13305664 38.11352539 C-3.15770592 32.86247097 -3.17589232 27.61144994 -3.18798828 22.36035156 C-3.19302882 20.57258518 -3.19986118 18.78482295 -3.20849609 16.99707031 C-3.22057394 14.43301371 -3.22628758 11.86901142 -3.23071289 9.30493164 C-3.23587418 8.50076309 -3.24103546 7.69659454 -3.24635315 6.86805725 C-3.24654879 4.94950824 -3.19507647 3.03107171 -3.13305664 1.11352539 C-2.13305664 0.11352539 -2.13305664 0.11352539 0 0 Z " fill="#959592" transform="translate(217.133056640625,84.886474609375)"/>
<path d="M0 0 C27.06 0 54.12 0 82 0 C82 4.29 82 8.58 82 13 C81 14 81 14 79.07421875 14.1328125 C78.28660156 14.13023438 77.49898438 14.12765625 76.6875 14.125 C75.51767578 14.12886719 75.51767578 14.12886719 74.32421875 14.1328125 C72.08748461 14.00499912 70.14733021 13.61913869 68 13 C68.495 13.99 68.495 13.99 69 15 C69.27029357 17.98733109 69.48620427 20.96016311 69.66430664 23.95336914 C69.72297409 24.88220413 69.78164154 25.81103912 69.84208679 26.76802063 C70.03591101 29.85680595 70.22325191 32.945945 70.41015625 36.03515625 C70.54301627 38.18877065 70.67611193 40.34237052 70.80943298 42.49595642 C71.08882937 47.02618467 71.36496214 51.55659769 71.63891602 56.0871582 C71.98769574 61.85003988 72.34498759 67.61235526 72.7049036 73.37455082 C72.98231683 77.8331821 73.25477054 82.29210659 73.52584648 86.75112724 C73.65543665 88.87235566 73.78657762 90.99348999 73.91938972 93.11451912 C74.68753533 105.42749145 75.19044879 117.66211532 75 130 C74.67 130 74.34 130 74 130 C71.11105706 111.88263972 70.63315763 94.28568104 71 76 C70.01 76 69.02 76 68 76 C68 83.59 68 91.18 68 99 C67.67 99 67.34 99 67 99 C64.1255295 70.68340766 62.57444556 42.45977161 63 14 C60.69 14 58.38 14 56 14 C56 19.61 56 25.22 56 31 C55.67 31 55.34 31 55 31 C54.11210477 25.00670719 53.59817604 19.06281442 54 13 C54.33 12.67 54.66 12.34 55 12 C57.97 12 60.94 12 64 12 C64.33 18.6 64.66 25.2 65 32 C65.66 32 66.32 32 67 32 C67 25.4 67 18.8 67 12 C71.62 12 76.24 12 81 12 C80.01 10.02 80.01 10.02 79 8 C78.34 8 77.68 8 77 8 C75 6 75 6 74 3 C49.91 2.67 25.82 2.34 1 2 C1 5.3 1 8.6 1 12 C0.67 12 0.34 12 0 12 C0 8.04 0 4.08 0 0 Z " fill="#BEBDBC" transform="translate(198,73)"/>
<path d="M0 0 C3.63 0 7.26 0 11 0 C11 20.13 11 40.26 11 61 C10.67 61 10.34 61 10 61 C9.38578355 41.33037167 8.81624716 21.68197058 9 2 C6.69 2 4.38 2 2 2 C2 49.85 2 97.7 2 147 C1.67 147 1.34 147 1 147 C-0.29585621 132.32948616 -0.13145073 117.63873517 -0.10139394 102.92498589 C-0.09506705 99.29622463 -0.09454932 95.66746221 -0.09336853 92.03869629 C-0.09028237 85.19331485 -0.08210626 78.34794971 -0.07201904 71.5025754 C-0.06077272 63.69824387 -0.05532616 55.89391149 -0.05032361 48.08957386 C-0.03992082 32.05970626 -0.02216929 16.02985589 0 0 Z " fill="#71716F" transform="translate(239,85)"/>
<path d="M0 0 C0.33 0 0.66 0 1 0 C1.75673332 6.12096231 2.16704499 12.11748375 2.24609375 18.28125 C2.27776795 20.08992912 2.30967934 21.89860409 2.34179688 23.70727539 C2.36487915 25.12195602 2.36487915 25.12195602 2.38842773 26.56521606 C2.67315736 43.59357068 3.23287212 60.58457762 4.13397217 77.59094238 C4.86568172 91.43940959 5.35910975 105.28019259 5.65820312 119.14477539 C5.74545917 123.09750876 5.8657325 127.04855352 6 131 C6.03593262 132.26263672 6.07186523 133.52527344 6.10888672 134.82617188 C6.19227295 136.59057617 6.19227295 136.59057617 6.27734375 138.390625 C6.31980225 139.42735352 6.36226074 140.46408203 6.40600586 141.53222656 C6.70003296 142.75377441 6.70003296 142.75377441 7 144 C8.32 144.66 9.64 145.32 11 146 C6.71 146 2.42 146 -2 146 C-2 145.34 -2 144.68 -2 144 C-4.97 144 -7.94 144 -11 144 C-11 143.34 -11 142.68 -11 142 C-7.7 142.33 -4.4 142.66 -1 143 C-1 135.74 -1 128.48 -1 121 C-0.67 121 -0.34 121 0 121 C1.06309567 126.17317421 1.11693938 131.12369336 1.0625 136.375 C1.05798828 137.20644531 1.05347656 138.03789062 1.04882812 138.89453125 C1.03713164 140.92971897 1.01919935 142.96486923 1 145 C1.66 145 2.32 145 3 145 C3.13007329 131.49439031 2.99123049 118.00431647 2.62667847 104.5038147 C2.5838654 102.91692196 2.54262796 101.32998595 2.50296021 99.74301147 C2.44591029 97.49776751 2.38225915 95.25281354 2.31640625 93.0078125 C2.27974854 91.70473145 2.24309082 90.40165039 2.20532227 89.05908203 C2.20356593 86.08520567 2.20356593 86.08520567 1 84 C-0.0827605 73.21494319 -0.13827102 62.39049489 -0.09765625 51.5625 C-0.09578392 50.0607915 -0.09436389 48.55908238 -0.09336853 47.05737305 C-0.08960737 43.16461405 -0.0798344 39.27189424 -0.06866455 35.37915039 C-0.05831019 31.38298065 -0.05384133 27.38680438 -0.04882812 23.390625 C-0.0382042 15.59373241 -0.02120806 7.79687176 0 0 Z " fill="#8E8E8C" transform="translate(254,116)"/>
<path d="M0 0 C0.33 0 0.66 0 1 0 C1.33 10.23 1.66 20.46 2 31 C3.44852637 27.37868408 4.25468643 25.32891674 4.625 21.6875 C4.74875 20.470625 4.8725 19.25375 5 18 C5.33 18 5.66 18 6 18 C6.1369308 27.32245139 5.78609053 36.56146623 5.20043945 45.86010742 C5.06073575 48.09066868 4.92944038 50.32162415 4.79882812 52.55273438 C4.71143179 53.98440526 4.62355915 55.41604717 4.53515625 56.84765625 C4.456604 58.12648682 4.37805176 59.40531738 4.29711914 60.72290039 C4.06423391 63.29152684 3.73838748 65.5421859 3 68 C3.79664063 67.65775391 3.79664063 67.65775391 4.609375 67.30859375 C5.31578125 67.02113281 6.0221875 66.73367188 6.75 66.4375 C7.44609375 66.14746094 8.1421875 65.85742188 8.859375 65.55859375 C11.30012784 64.92168197 12.6403655 65.19751169 15 66 C12.81353696 66.7945261 10.62577779 67.5854858 8.4375 68.375 C6.61025391 69.03628906 6.61025391 69.03628906 4.74609375 69.7109375 C-6.25700673 73.49719731 -6.25700673 73.49719731 -10 72 C-6.535 71.01 -6.535 71.01 -3 70 C-2.98018066 69.30068359 -2.96036133 68.60136719 -2.93994141 67.88085938 C-2.2809895 45.23621375 -1.18728031 22.62226971 0 0 Z " fill="#ECECEA" transform="translate(203,195)"/>
<path d="M0 0 C0.33 0 0.66 0 1 0 C1.05534912 0.71655762 1.11069824 1.43311523 1.16772461 2.17138672 C1.42001558 5.40627677 1.67867668 8.64062633 1.9375 11.875 C2.02451172 13.00292969 2.11152344 14.13085938 2.20117188 15.29296875 C2.28818359 16.36933594 2.37519531 17.44570312 2.46484375 18.5546875 C2.543396 19.54968262 2.62194824 20.54467773 2.70288086 21.56982422 C2.86274433 24.00495664 2.86274433 24.00495664 4 26 C4.15716474 28.39017488 4.25856764 30.75545881 4.31640625 33.1484375 C4.33727798 33.86918961 4.35814972 34.58994171 4.37965393 35.33253479 C4.44584355 37.67991409 4.50463907 40.02740165 4.5625 42.375 C4.604633 43.9772955 4.64678796 45.57959042 4.68896484 47.18188477 C4.90789022 55.76602083 5.09757817 64.35031242 5.125 72.9375 C5.12959229 73.72108887 5.13418457 74.50467773 5.13891602 75.31201172 C5.1293694 78.67929573 5.05864569 81.78205318 4 85 C3.34 85 2.68 85 2 85 C1.93941406 83.77023437 1.87882813 82.54046875 1.81640625 81.2734375 C1.73194995 79.64061573 1.64730453 78.00780373 1.5625 76.375 C1.52318359 75.56675781 1.48386719 74.75851563 1.44335938 73.92578125 C1.40146484 73.13300781 1.35957031 72.34023437 1.31640625 71.5234375 C1.27974854 70.80075684 1.24309082 70.07807617 1.20532227 69.33349609 C1.02963957 66.91923028 1.02963957 66.91923028 0.4942627 64.2467041 C0.00163224 61.01072186 -0.12031153 57.990156 -0.11352539 54.71923828 C-0.11344986 53.4984256 -0.11337433 52.27761292 -0.11329651 51.01980591 C-0.10813522 49.71647308 -0.10297394 48.41314026 -0.09765625 47.0703125 C-0.09578901 45.71125338 -0.09436655 44.35219358 -0.09336853 42.99313354 C-0.08956748 39.43231314 -0.07975802 35.87153413 -0.06866455 32.31072998 C-0.05839835 28.67070068 -0.05385979 25.03066463 -0.04882812 21.390625 C-0.03813339 14.26039983 -0.02108622 7.13020263 0 0 Z " fill="#EBEAE7" transform="translate(253,176)"/>
<path d="M0 0 C0.33 0 0.66 0 1 0 C1.9783858 8.37533904 2.15561437 16.69758258 2.13037109 25.1171875 C2.12497359 27.26048742 2.13036897 29.40358109 2.13671875 31.546875 C2.13605844 32.93229212 2.13477825 34.31770912 2.1328125 35.703125 C2.13168457 36.93708008 2.13055664 38.17103516 2.12939453 39.44238281 C2 43 2 43 1.51147461 46.33911133 C0.87962217 50.86160647 0.76995729 55.31032342 0.68359375 59.87109375 C0.66281265 60.793423 0.64203156 61.71575226 0.62062073 62.66603088 C0.55564362 65.58978383 0.49648316 68.51362061 0.4375 71.4375 C0.39426539 73.42904486 0.35064958 75.42058148 0.30664062 77.41210938 C0.20001593 82.27465537 0.09860497 87.13728504 0 92 C-0.99 92.495 -0.99 92.495 -2 93 C-2.04724113 85.15631128 -2.08231837 77.31265852 -2.10362434 69.46886158 C-2.11387224 65.8230198 -2.12766201 62.17727823 -2.15087891 58.53149414 C-2.27252417 38.91685755 -1.67078881 19.55463031 0 0 Z " fill="#F4F4F2" transform="translate(223,134)"/>
<path d="M0 0 C27.06 0 54.12 0 82 0 C81.67 2.97 81.34 5.94 81 9 C77 8 77 8 75 6 C74.505 4.515 74.505 4.515 74 3 C49.91 2.67 25.82 2.34 1 2 C1 5.3 1 8.6 1 12 C0.67 12 0.34 12 0 12 C0 8.04 0 4.08 0 0 Z " fill="#A8A8A7" transform="translate(198,73)"/>
<path d="M0 0 C3.96 0 7.92 0 12 0 C12.02471188 5.07201786 12.04286564 10.14400071 12.05493164 15.21606445 C12.05996158 16.9416566 12.06678626 18.66724448 12.07543945 20.39282227 C12.08756361 22.8725693 12.09324169 25.35226 12.09765625 27.83203125 C12.10281754 28.60400345 12.10797882 29.37597565 12.11329651 30.17134094 C12.11363318 33.3830228 12.02326578 35.93020266 11 39 C10.79269206 41.02359183 10.6330741 43.05220571 10.5 45.08203125 C10.41814453 46.31356934 10.33628906 47.54510742 10.25195312 48.81396484 C10.16783548 50.14680149 10.08385407 51.47964674 10 52.8125 C9.91095761 54.17660487 9.82176377 55.54069987 9.73242188 56.90478516 C9.21716204 64.89131263 8.81043873 72.87778138 8.5 80.875 C8.15725353 89.67053874 7.28511701 98.29114883 6 107 C5.67 107 5.34 107 5 107 C4.86958499 96.10724184 5.20342463 85.27342672 5.74462891 74.39501953 C5.87413642 71.76752074 5.9940283 69.13970048 6.11328125 66.51171875 C6.55337448 57.25097701 7.23462517 48.06349936 8.26434326 38.84947205 C9.11634123 31.18133948 9.6488495 23.5128683 10.125 15.8125 C10.2118843 14.45375328 10.29912364 13.09502921 10.38671875 11.73632812 C10.5945989 8.49108797 10.79902349 5.24567369 11 2 C7.7 2 4.4 2 1 2 C0.67 1.34 0.34 0.68 0 0 Z " fill="#777774" transform="translate(199,85)"/>
<path d="M0 0 C0.99 0 1.98 0 3 0 C3.01981934 0.80928955 3.03963867 1.6185791 3.06005859 2.45239258 C3.43648601 21.20474449 3.43648601 21.20474449 5.0625 39.875 C6.45051255 50.88208874 6.18483087 61.92578713 6 73 C5.34 72.67 4.68 72.34 4 72 C0.90081339 56.80790879 0.72250265 40.44735246 1 25 C0.34 25 -0.32 25 -1 25 C-0.67 16.75 -0.34 8.5 0 0 Z " fill="#FAF9F7" transform="translate(266,149)"/>
<path d="M0 0 C0.33 0 0.66 0 1 0 C1.06058594 0.78246094 1.12117187 1.56492187 1.18359375 2.37109375 C1.26738281 3.38300781 1.35117188 4.39492187 1.4375 5.4375 C1.51871094 6.44683594 1.59992188 7.45617187 1.68359375 8.49609375 C1.73211468 10.93640779 1.73211468 10.93640779 3 12 C3.43116401 16.46483433 3.5316936 20.9554443 3.6875 25.4375 C3.71190155 26.10340149 3.7363031 26.76930298 3.76144409 27.4553833 C4.23166962 41.06111938 3.41357251 54.45946328 2 68 C1.67 68 1.34 68 1 68 C0.67 62.06 0.34 56.12 0 50 C-1.96822886 51.96822886 -1.66248381 55.34808709 -2 58 C-2.33 58 -2.66 58 -3 58 C-2.86111494 54.72883268 -2.71269508 51.458166 -2.5625 48.1875 C-2.52318359 47.25873047 -2.48386719 46.32996094 -2.44335938 45.37304688 C-2.40146484 44.48037109 -2.35957031 43.58769531 -2.31640625 42.66796875 C-2.27974854 41.84578857 -2.24309082 41.0236084 -2.20532227 40.17651367 C-2 38 -2 38 -1 35 C-0.84653047 32.34393699 -0.74282102 29.70904905 -0.68359375 27.05078125 C-0.66281265 26.27816452 -0.64203156 25.50554779 -0.62062073 24.70951843 C-0.55528962 22.2439352 -0.49631685 19.77824639 -0.4375 17.3125 C-0.39429913 15.63996309 -0.35068434 13.96743681 -0.30664062 12.29492188 C-0.1996251 8.1967225 -0.09831143 4.09841704 0 0 Z " fill="#D3D3D1" transform="translate(211,86)"/>
<path d="M0 0 C0.33 0 0.66 0 1 0 C1.02336911 11.61535016 1.04103844 23.23069456 1.05181217 34.84606361 C1.05698802 40.24194811 1.06398697 45.63781629 1.07543945 51.03369141 C1.08645971 56.2597812 1.09231649 61.48585549 1.09487724 66.71195602 C1.09669757 68.68661111 1.10025017 70.66126553 1.10573006 72.63591385 C1.14247796 86.45177444 0.74729546 100.20402757 0 114 C-0.66 114 -1.32 114 -2 114 C-2.21826793 91.13097803 -1.6227404 68.28176238 -1.07287598 45.42126465 C-0.94999606 40.2848016 -0.83063448 35.14825678 -0.7109375 30.01171875 C-0.47731507 20.00773156 -0.2399247 10.00383789 0 0 Z " fill="#7B7A7A" transform="translate(220,146)"/>
<path d="M0 0 C3.46679688 0.04882812 3.46679688 0.04882812 6.93359375 0.09765625 C7.12942342 12.57907754 6.51998815 25.00882357 5.93359375 37.47265625 C5.83694799 39.57680954 5.74059165 41.68097615 5.64453125 43.78515625 C5.41088559 48.88948241 5.17333395 53.99361286 4.93359375 59.09765625 C4.60359375 59.09765625 4.27359375 59.09765625 3.93359375 59.09765625 C3.78277905 40.06716139 4.18307519 21.11012778 4.93359375 2.09765625 C2.95359375 2.42765625 0.97359375 2.75765625 -1.06640625 3.09765625 C-1.05480469 4.11601563 -1.04320312 5.134375 -1.03125 6.18359375 C-0.94977073 16.85865185 -1.36878968 27.44654614 -2.06640625 38.09765625 C-2.39640625 38.09765625 -2.72640625 38.09765625 -3.06640625 38.09765625 C-3.09105553 32.84660183 -3.10924193 27.5955808 -3.12133789 22.34448242 C-3.12637843 20.55671604 -3.13321079 18.7689538 -3.1418457 16.98120117 C-3.15392355 14.41714457 -3.15963719 11.85314228 -3.1640625 9.2890625 C-3.16922379 8.48489395 -3.17438507 7.6807254 -3.17970276 6.85218811 C-3.1798984 4.9336391 -3.12842608 3.01520257 -3.06640625 1.09765625 C-2.06640625 0.09765625 -2.06640625 0.09765625 0 0 Z " fill="#65655F" transform="translate(217.06640625,84.90234375)"/>
<path d="M0 0 C0.33 0 0.66 0 1 0 C1.0501123 0.85529297 1.10022461 1.71058594 1.15185547 2.59179688 C1.38753869 6.56153595 1.62878554 10.5309023 1.875 14.5 C1.91946259 15.21682953 1.96392517 15.93365906 2.00973511 16.67221069 C2.48596235 24.25064381 2.97880987 31.79185348 4.0625 39.3125 C6.39188347 56.00335796 6.21095074 73.17081869 6 90 C6.66 90.33 7.32 90.66 8 91 C4.26512223 90.5020163 2.18762365 90.12508244 -1 88 C0.98 88 2.96 88 5 88 C4.75902588 86.94341187 4.75902588 86.94341187 4.51318359 85.86547852 C3.98398055 82.91055172 3.84120687 80.15255831 3.7890625 77.15234375 C3.76255615 76.00419189 3.7360498 74.85604004 3.70874023 73.6730957 C3.68110596 72.44034912 3.65347168 71.20760254 3.625 69.9375 C3.35198544 59.82455928 2.65996883 49.86257021 1.4375 39.8125 C-0.16775749 26.51219997 -0.3279641 13.38093508 0 0 Z " fill="#8C8C8B" transform="translate(266,174)"/>
<path d="M0 0 C0.33 0 0.66 0 1 0 C1.02505615 0.96188232 1.0501123 1.92376465 1.07592773 2.91479492 C1.17143076 6.54737501 1.27127799 10.17982583 1.37231445 13.81225586 C1.41513188 15.37244606 1.45683347 16.93266735 1.49731445 18.49291992 C1.61375125 22.96495532 1.75075115 27.43541085 1.92205811 31.90570068 C1.99695122 33.91807916 2.05761597 35.93097187 2.11767578 37.94384766 C2.17294434 39.11351074 2.22821289 40.28317383 2.28515625 41.48828125 C2.32648682 42.51091064 2.36781738 43.53354004 2.41040039 44.5871582 C2.60496826 45.383396 2.79953613 46.17963379 3 47 C4.32 47.66 5.64 48.32 7 49 C2.71 49 -1.58 49 -6 49 C-6 48.34 -6 47.68 -6 47 C-8.97 47 -11.94 47 -15 47 C-15 46.34 -15 45.68 -15 45 C-11.7 45.33 -8.4 45.66 -5 46 C-5 38.74 -5 31.48 -5 24 C-4.67 24 -4.34 24 -4 24 C-2.93690433 29.17317421 -2.88306062 34.12369336 -2.9375 39.375 C-2.94201172 40.20644531 -2.94652344 41.03789062 -2.95117188 41.89453125 C-2.96286836 43.92971897 -2.98080065 45.96486923 -3 48 C-2.34 48 -1.68 48 -1 48 C-0.67 32.16 -0.34 16.32 0 0 Z " fill="#727270" transform="translate(258,213)"/>
<path d="M0 0 C0.33 0 0.66 0 1 0 C0.09689416 50.01935719 0.09689416 50.01935719 -0.5 65.125 C-0.53536865 66.05497803 -0.5707373 66.98495605 -0.60717773 67.94311523 C-0.8276191 73.01037248 -1.30376672 77.97551649 -2 83 C-2.66 83 -3.32 83 -4 83 C-4.22616209 56.70604701 -4.22616209 56.70604701 -3 50 C-2.505 49.505 -2.505 49.505 -2 49 C-1.85174236 45.98096999 -1.76475048 42.98205628 -1.71875 39.9609375 C-1.70034058 39.04672028 -1.68193115 38.13250305 -1.66296387 37.19058228 C-1.6040226 34.25212245 -1.55135234 31.31360164 -1.5 28.375 C-1.44846667 25.45782798 -1.39542473 22.54073106 -1.33703613 19.62368774 C-1.30066606 17.80619857 -1.26817041 15.98862648 -1.2401123 14.17098999 C-1.14400145 9.35832584 -0.79405071 4.74903405 0 0 Z " fill="#DBDBD9" transform="translate(224,177)"/>
<path d="M0 0 C0.33 0 0.66 0 1 0 C1.43468435 6.23933889 1.86155559 12.47915013 2.28173828 18.71948242 C2.42519128 20.83453165 2.57063952 22.94944666 2.71826172 25.06420898 C3.60091757 37.73062072 4.2331029 50.30128811 4 63 C3.67 63 3.34 63 3 63 C-0.55276355 42.00062976 -0.31581783 21.22295785 0 0 Z " fill="#8E8D8C" transform="translate(269,140)"/>
<path d="M0 0 C0.33 0 0.66 0 1 0 C1.05534912 0.71655762 1.11069824 1.43311523 1.16772461 2.17138672 C1.42001558 5.40627677 1.67867668 8.64062633 1.9375 11.875 C2.02451172 13.00292969 2.11152344 14.13085938 2.20117188 15.29296875 C2.28818359 16.36933594 2.37519531 17.44570312 2.46484375 18.5546875 C2.543396 19.54968262 2.62194824 20.54467773 2.70288086 21.56982422 C2.86274433 24.00495664 2.86274433 24.00495664 4 26 C4.08449628 27.7404417 4.10723024 29.48409722 4.09765625 31.2265625 C4.09282227 32.7734375 4.09282227 32.7734375 4.08789062 34.3515625 C4.07951172 35.43179688 4.07113281 36.51203125 4.0625 37.625 C4.05798828 38.71296875 4.05347656 39.8009375 4.04882812 40.921875 C4.03701776 43.61463789 4.02054778 46.30729188 4 49 C3.34 49 2.68 49 2 49 C1.67 49.66 1.34 50.32 1 51 C0.12012648 33.98989199 -0.12884564 17.03141177 0 0 Z " fill="#F3F2F0" transform="translate(253,176)"/>
<path d="M0 0 C0.33 0 0.66 0 1 0 C1.43297448 6.17027023 1.85997438 12.34091621 2.28173828 18.51196289 C2.42565393 20.60582293 2.57112621 22.69957665 2.71826172 24.79321289 C2.93098166 27.82411032 3.13889755 30.85527983 3.34375 33.88671875 C3.41045898 34.86462372 3.47716797 35.84252869 3.54589844 36.85006714 C3.95179753 43.16197258 4.07760996 49.36146718 3.75976562 55.68286133 C3.79304154 58.06182273 3.79304154 58.06182273 5.38085938 59.7019043 C5.91517578 60.13027588 6.44949219 60.55864746 7 61 C7.66 61.66 8.32 62.32 9 63 C6.625 63.1875 6.625 63.1875 4 63 C1.87472472 59.81208708 1.72862601 58.82942917 1.62109375 55.1484375 C1.58693359 54.21515625 1.55277344 53.281875 1.51757812 52.3203125 C1.49115234 51.34835937 1.46472656 50.37640625 1.4375 49.375 C1.37782795 47.44518037 1.31424228 45.51547639 1.24609375 43.5859375 C1.22216553 42.7304834 1.1982373 41.8750293 1.17358398 40.99365234 C1.21539823 39.00102919 1.21539823 39.00102919 0 38 C-0.08861992 35.1883662 -0.11522355 32.40141745 -0.09765625 29.58984375 C-0.0962413 28.74780899 -0.09482635 27.90577423 -0.09336853 27.03822327 C-0.08775263 24.33794665 -0.07519748 21.63775172 -0.0625 18.9375 C-0.05748705 17.11132932 -0.05292379 15.28515734 -0.04882812 13.45898438 C-0.03777804 8.97262458 -0.02050279 4.48632616 0 0 Z " fill="#898988" transform="translate(273,205)"/>
<path d="M0 0 C0.33 0 0.66 0 1 0 C1.33 10.23 1.66 20.46 2 31 C3.44852637 27.37868408 4.25468643 25.32891674 4.625 21.6875 C4.810625 19.8621875 4.810625 19.8621875 5 18 C5.33 18 5.66 18 6 18 C6.13534286 27.05293337 5.75741925 35.97859571 5 45 C4.67 45 4.34 45 4 45 C3.87625 44.0925 3.7525 43.185 3.625 42.25 C3.07890323 39.41029677 2.42736197 37.47409409 1 35 C0.67 37.31 0.34 39.62 0 42 C-0.33 42 -0.66 42 -1 42 C-1.15938672 27.97396876 -0.67067454 14.0092496 0 0 Z " fill="#747473" transform="translate(203,195)"/>
<path d="M0 0 C1.23556641 0.01740234 1.23556641 0.01740234 2.49609375 0.03515625 C3.32238281 0.04417969 4.14867187 0.05320312 5 0.0625 C5.63808594 0.07410156 6.27617187 0.08570312 6.93359375 0.09765625 C8.34857456 14.7275471 8.02969523 29.41778585 7.93359375 44.09765625 C7.60359375 44.09765625 7.27359375 44.09765625 6.93359375 44.09765625 C6.04522088 34.64004071 5.80865456 25.2807168 5.87109375 15.78515625 C5.87612768 14.44726733 5.88068718 13.10937655 5.88476562 11.77148438 C5.89640699 8.5468254 5.91275672 5.32226665 5.93359375 2.09765625 C3.62359375 2.09765625 1.31359375 2.09765625 -1.06640625 2.09765625 C-1.06640625 7.70765625 -1.06640625 13.31765625 -1.06640625 19.09765625 C-1.39640625 19.09765625 -1.72640625 19.09765625 -2.06640625 19.09765625 C-2.95430148 13.10436344 -3.46823021 7.16047067 -3.06640625 1.09765625 C-2.06640625 0.09765625 -2.06640625 0.09765625 0 0 Z " fill="#747373" transform="translate(255.06640625,84.90234375)"/>
<path d="M0 0 C0.33 0 0.66 0 1 0 C1.33 8.25 1.66 16.5 2 25 C3.46195644 19.88315246 4.30699184 16.20363196 4.625 11.0625 C4.69976562 9.91910156 4.77453125 8.77570313 4.8515625 7.59765625 C4.90054688 6.74042969 4.94953125 5.88320312 5 5 C5.33 5 5.66 5 6 5 C6.02703562 7.58340384 6.04685611 10.16652308 6.0625 12.75 C6.07087891 13.47960937 6.07925781 14.20921875 6.08789062 14.9609375 C6.10391684 18.48670558 5.95292713 21.61034916 5 25 C5.79664063 24.65775391 5.79664063 24.65775391 6.609375 24.30859375 C7.31578125 24.02113281 8.0221875 23.73367188 8.75 23.4375 C9.44609375 23.14746094 10.1421875 22.85742188 10.859375 22.55859375 C13.30012784 21.92168197 14.6403655 22.19751169 17 23 C14.81353696 23.7945261 12.62577779 24.5854858 10.4375 25.375 C9.21933594 25.81585938 8.00117188 26.25671875 6.74609375 26.7109375 C-4.25700673 30.49719731 -4.25700673 30.49719731 -8 29 C-5.69 28.34 -3.38 27.68 -1 27 C-0.67 18.09 -0.34 9.18 0 0 Z " fill="#6C6B6A" transform="translate(201,238)"/>
<path d="M0 0 C3.67457661 0.02930284 6.4349318 0.47649706 9.75 2.1875 C10.08 5.4875 10.41 8.7875 10.75 12.1875 C10.09 12.1875 9.43 12.1875 8.75 12.1875 C8.75 12.8475 8.75 13.5075 8.75 14.1875 C4.80352382 15.17594951 1.47607036 15.14941905 -2.5625 14.75 C-3.63113281 14.64816406 -4.69976562 14.54632813 -5.80078125 14.44140625 C-6.60902344 14.35761719 -7.41726563 14.27382813 -8.25 14.1875 C-8.25 11.2175 -8.25 8.2475 -8.25 5.1875 C-7.59 5.1875 -6.93 5.1875 -6.25 5.1875 C-6.0334375 4.2284375 -6.0334375 4.2284375 -5.8125 3.25 C-4.83041904 -0.35096352 -3.48603236 0.02885788 0 0 Z M-6.25 7.1875 C-6.64811231 9.17561914 -6.9909688 11.17652662 -7.25 13.1875 C-4.79126232 13.04691524 -2.33314825 12.90027001 0.125 12.75 C0.82367188 12.71068359 1.52234375 12.67136719 2.2421875 12.63085938 C6.12360492 12.44469866 6.12360492 12.44469866 9.75 11.1875 C9.56870185 7.74956661 9.56870185 7.74956661 8.75 4.1875 C6.48680474 2.25959292 4.75025566 2.18753808 1.8125 1.75 C-2.38781667 2.35004524 -3.71079437 3.85025832 -6.25 7.1875 Z " fill="#929292" transform="translate(267.25,279.8125)"/>
<path d="M0 0 C1.6875 1.0703125 1.6875 1.0703125 2.6875 3.0703125 C0.3775 3.0703125 -1.9325 3.0703125 -4.3125 3.0703125 C-4.3125 2.0803125 -4.3125 1.0903125 -4.3125 0.0703125 C-7.85400893 -0.01730413 -11.39523633 -0.07028489 -14.9375 -0.1171875 C-15.93652344 -0.14232422 -16.93554688 -0.16746094 -17.96484375 -0.19335938 C-23.49998681 -0.24834424 -27.57503161 -0.15177828 -32.3125 3.0703125 C-33.67077971 4.71671215 -35.00504251 6.38327057 -36.3125 8.0703125 C-39.0625 9.8828125 -39.0625 9.8828125 -41.3125 11.0703125 C-39.8125 8.0703125 -39.8125 8.0703125 -38.3125 5.0703125 C-37.6525 5.0703125 -36.9925 5.0703125 -36.3125 5.0703125 C-36.3125 4.4103125 -36.3125 3.7503125 -36.3125 3.0703125 C-34.66796875 1.81640625 -34.66796875 1.81640625 -32.5 0.5078125 C-31.79230469 0.07339844 -31.08460937 -0.36101562 -30.35546875 -0.80859375 C-21.81924726 -5.4929065 -8.54664208 -3.89796176 0 0 Z " fill="#ACACAC" transform="translate(60.3125,343.9296875)"/>
<path d="M0 0 C0.33 0 0.66 0 1 0 C0.36655181 18.00133463 -0.29642962 36.00126695 -1 54 C-1.33 54 -1.66 54 -2 54 C-2.33 38.49 -2.66 22.98 -3 7 C-2.34 7 -1.68 7 -1 7 C-0.67 4.69 -0.34 2.38 0 0 Z " fill="#91918E" transform="translate(211,156)"/>
<path d="M0 0 C3.3 0 6.6 0 10 0 C10 7.92 10 15.84 10 24 C9.34 24 8.68 24 8 24 C8 16.74 8 9.48 8 2 C5.69 2 3.38 2 1 2 C1 9.92 1 17.84 1 26 C0.67 26 0.34 26 0 26 C0 17.42 0 8.84 0 0 Z " fill="#7A7A79" transform="translate(227,85)"/>
<path d="M0 0 C0.33 0 0.66 0 1 0 C1 13.86 1 27.72 1 42 C0.34 42 -0.32 42 -1 42 C-2.13859688 37.45464898 -2.14895684 33.08912004 -2.125 28.4375 C-2.12886719 27.68275391 -2.13273438 26.92800781 -2.13671875 26.15039062 C-2.13042588 22.57918607 -1.88104411 19.44048775 -1 16 C-0.77609683 13.24682026 -0.58606338 10.50694671 -0.4375 7.75 C-0.39431641 7.00492188 -0.35113281 6.25984375 -0.30664062 5.4921875 C-0.20103275 3.661651 -0.10005799 1.83084824 0 0 Z " fill="#F5F5F1" transform="translate(239,216)"/>
<path d="M0 0 C0.33 0 0.66 0 1 0 C1.66 9.57 2.32 19.14 3 29 C-8 30 -8 30 -13 29 C-9.3558226 26.5705484 -7.28758728 26.83820425 -3 27 C-3 25.02 -3 23.04 -3 21 C-2.67 21 -2.34 21 -2 21 C-2 22.65 -2 24.3 -2 26 C-1.34 26 -0.68 26 0 26 C0 17.42 0 8.84 0 0 Z " fill="#AFAFAD" transform="translate(240,232)"/>
<path d="M0 0 C0.99 0 1.98 0 3 0 C3 9.57 3 19.14 3 29 C2.34 27.68 1.68 26.36 1 25 C0.34 25 -0.32 25 -1 25 C-0.67 16.75 -0.34 8.5 0 0 Z " fill="#ECECEA" transform="translate(266,149)"/>
<path d="M0 0 C0.66 0.99 1.32 1.98 2 3 C2.99 3.66 3.98 4.32 5 5 C1.7 5 -1.6 5 -5 5 C-5 11.6 -5 18.2 -5 25 C-5.66 25 -6.32 25 -7 25 C-8.11165232 20.5621439 -8.11527763 16.23043614 -8.0625 11.6875 C-8.05798828 10.94693359 -8.05347656 10.20636719 -8.04882812 9.44335938 C-8.03712175 7.62887101 -8.01918898 5.81442466 -8 4 C-5.69 4 -3.38 4 -1 4 C-1.33 3.01 -1.66 2.02 -2 1 C-1.34 0.67 -0.68 0.34 0 0 Z " fill="#F7F4F4" transform="translate(270,80)"/>
<path d="M0 0 C0.33 0 0.66 0 1 0 C1.12385692 13.70683222 0.8230363 27.31702148 0 41 C-0.33 41 -0.66 41 -1 41 C-1.19208189 35.48277042 -1.37083263 29.96533332 -1.53710938 24.44726562 C-1.5955953 22.56921744 -1.65775641 20.69128003 -1.72363281 18.81347656 C-1.81756025 16.11804368 -1.89836718 13.42249184 -1.9765625 10.7265625 C-2.00875885 9.88380768 -2.0409552 9.04105286 -2.0741272 8.17276001 C-2.12728029 6.11571159 -2.073058 4.05643769 -2 2 C-1.34 1.34 -0.68 0.68 0 0 Z " fill="#E5E4E4" transform="translate(253,155)"/>
<path d="M0 0 C0.33 0 0.66 0 1 0 C1.10055982 10.05598201 1.09945892 19.98707052 0 30 C-0.33 30 -0.66 30 -1 30 C-1.33 24.06 -1.66 18.12 -2 12 C-3.96822886 13.96822886 -3.66248381 17.34808709 -4 20 C-4.33 20 -4.66 20 -5 20 C-5.29341888 14.32723489 -5.00559652 11.00932754 -2 6 C-1.67 6 -1.34 6 -1 6 C-0.67 4.02 -0.34 2.04 0 0 Z " fill="#AEAEAD" transform="translate(213,124)"/>
<path d="M0 0 C1.9375 0.375 1.9375 0.375 4 1 C5 3 5 3 5 10 C-0.61 10 -6.22 10 -12 10 C-12 9.34 -12 8.68 -12 8 C-6.97874074 7.22083908 -3.02296004 6.86983399 2 8 C1.47731534 5.23723823 0.89130413 2.6739124 0 0 Z " fill="#939393" transform="translate(215,285)"/>
<path d="M0 0 C1.65 0.33 3.3 0.66 5 1 C5 1.66 5 2.32 5 3 C4.01 3 3.02 3 2 3 C1.67 4.32 1.34 5.64 1 7 C1.58491211 6.98952637 2.16982422 6.97905273 2.77246094 6.96826172 C5.43159663 6.92659736 8.09066353 6.90064099 10.75 6.875 C11.67039062 6.85824219 12.59078125 6.84148437 13.5390625 6.82421875 C14.87324219 6.81455078 14.87324219 6.81455078 16.234375 6.8046875 C17.05131836 6.79421387 17.86826172 6.78374023 18.70996094 6.77294922 C21.21887518 7.02170084 22.83395625 7.74299871 25 9 C20.85418113 9.02886751 16.70838784 9.04675327 12.5625 9.0625 C10.78649414 9.07506836 10.78649414 9.07506836 8.97460938 9.08789062 C7.84990234 9.09111328 6.72519531 9.09433594 5.56640625 9.09765625 C4.00321655 9.10551147 4.00321655 9.10551147 2.40844727 9.11352539 C0 9 0 9 -1 8 C-1.23529412 2.47058824 -1.23529412 2.47058824 0 0 Z " fill="#8E8E8E" transform="translate(269,311)"/>
<path d="M0 0 C0.99 0 1.98 0 3 0 C3 5.94 3 11.88 3 18 C2.34 18.33 1.68 18.66 1 19 C-0.00926479 14.84373632 -0.10239579 10.95634906 -0.0625 6.6875 C-0.05347656 5.43324219 -0.04445313 4.17898437 -0.03515625 2.88671875 C-0.01775391 1.45779297 -0.01775391 1.45779297 0 0 Z " fill="#F8F8F5" transform="translate(272,244)"/>
<path d="M0 0 C0.625 1.75 0.625 1.75 1 4 C0.33333333 5.33333333 -0.33333333 6.66666667 -1 8 C-1.47125235 10.66360025 -1.73049325 13.30493254 -2 16 C-1.195625 16.226875 -0.39125 16.45375 0.4375 16.6875 C1.7059375 17.3371875 1.7059375 17.3371875 3 18 C3.6875 20.5625 3.6875 20.5625 4 23 C4.66 23.33 5.32 23.66 6 24 C3 24 3 24 1.140625 22.3125 C-3.80006749 16.26933893 -3.80006749 16.26933893 -4.3359375 12.8671875 C-3.84829739 8.26169756 -1.98530725 4.14324992 0 0 Z " fill="#9D9D9C" transform="translate(305,258)"/>
<path d="M0 0 C0.99 0.33 1.98 0.66 3 1 C3.19247045 5.35949378 3.37115801 9.71926895 3.53710938 14.07983398 C3.59549775 15.56306078 3.65764593 17.04614455 3.72363281 18.52905273 C3.81784811 20.66103065 3.89851575 22.79315781 3.9765625 24.92578125 C4.02893066 26.20880127 4.08129883 27.49182129 4.13525391 28.8137207 C4 32 4 32 2 35 C2 25.1 2 15.2 2 5 C1.34 5 0.68 5 0 5 C0 3.35 0 1.7 0 0 Z " fill="#CACAC8" transform="translate(224,85)"/>
<path d="M0 0 C4.00472059 0.57210294 7.02210663 1.18754515 10 4 C10.83961477 7.65263067 10.94043381 11.26222134 11 15 C11.01546875 15.89847656 11.0309375 16.79695313 11.046875 17.72265625 C11.06013943 19.81512046 11.03429877 21.90777486 11 24 C8.10941052 19.42323332 8.75638356 14.45838422 8.734375 9.21484375 C8.33011305 5.70815856 8.33011305 5.70815856 4.953125 4.06640625 C3.49132812 3.53853516 3.49132812 3.53853516 2 3 C2 2.34 2 1.68 2 1 C1.34 0.67 0.68 0.34 0 0 Z " fill="#9B9B99" transform="translate(282,268)"/>
<path d="M0 0 C1.98 0.66 3.96 1.32 6 2 C5.67 4.31 5.34 6.62 5 9 C-1.93 8.67 -8.86 8.34 -16 8 C-16 7.67 -16 7.34 -16 7 C-9.73 7 -3.46 7 3 7 C3.33 5.68 3.66 4.36 4 3 C2.68 2.67 1.36 2.34 0 2 C0 1.34 0 0.68 0 0 Z " fill="#D7D7D5" transform="translate(203,310)"/>
<path d="M0 0 C1.7744761 2.66171415 2.85029181 4.91989066 4 7.875 C4.495 9.13957031 4.495 9.13957031 5 10.4296875 C5.33 11.27789062 5.66 12.12609375 6 13 C6.66507375 14.66730295 7.33127496 16.33415816 8 18 C7.34 17.67 6.68 17.34 6 17 C6 16.34 6 15.68 6 15 C4.68 15 3.36 15 2 15 C0.875 13.25 0.875 13.25 0 11 C0.875 8.75 0.875 8.75 2 7 C1.01 6.67 0.02 6.34 -1 6 C-0.67 4.02 -0.34 2.04 0 0 Z " fill="#D5D5D3" transform="translate(371,374)"/>
<path d="M0 0 C0.33 0 0.66 0 1 0 C1 1.98 1 3.96 1 6 C0.34 6 -0.32 6 -1 6 C-1 6.66 -1 7.32 -1 8 C-4.94647618 8.98844951 -8.27392964 8.96191905 -12.3125 8.5625 C-13.38113281 8.46066406 -14.44976562 8.35882813 -15.55078125 8.25390625 C-16.35902344 8.17011719 -17.16726563 8.08632813 -18 8 C-18 6.35 -18 4.7 -18 3 C-17.67 4.32 -17.34 5.64 -17 7 C-8.585 6.01 -8.585 6.01 0 5 C0 3.35 0 1.7 0 0 Z " fill="#878786" transform="translate(277,286)"/>
<path d="M0 0 C0.33 0 0.66 0 1 0 C1.11465457 11.72024504 0.90289857 23.31068812 0 35 C-0.33 35 -0.66 35 -1 35 C-1.33 28.73 -1.66 22.46 -2 16 C-1.34 16 -0.68 16 0 16 C0 10.72 0 5.44 0 0 Z " fill="#CECDCB" transform="translate(222,128)"/>
<path d="M0 0 C0.33 0 0.66 0 1 0 C1.06058594 0.78246094 1.12117187 1.56492187 1.18359375 2.37109375 C1.26738281 3.38300781 1.35117188 4.39492187 1.4375 5.4375 C1.51871094 6.44683594 1.59992188 7.45617187 1.68359375 8.49609375 C1.73211468 10.93640779 1.73211468 10.93640779 3 12 C3.27314815 17.73611111 3.27314815 17.73611111 3 20 C2.34 20.66 1.68 21.32 1 22 C-0.20029908 19.59940183 -0.11459743 18.10639351 -0.09765625 15.4296875 C-0.09443359 14.53378906 -0.09121094 13.63789062 -0.08789062 12.71484375 C-0.07951172 11.77769531 -0.07113281 10.84054688 -0.0625 9.875 C-0.05798828 8.93011719 -0.05347656 7.98523438 -0.04882812 7.01171875 C-0.03702357 4.67441613 -0.02055759 2.33723939 0 0 Z " fill="#DDDCDA" transform="translate(211,86)"/>
<path d="M0 0 C2.97 0 5.94 0 9 0 C9 4.62 9 9.24 9 14 C8.67 14 8.34 14 8 14 C7.67 10.04 7.34 6.08 7 2 C2.52116304 2.44703986 2.52116304 2.44703986 -1 5 C-0.67 3.35 -0.34 1.7 0 0 Z " fill="#959592" transform="translate(215,85)"/>
<path d="M0 0 C0.33 0 0.66 0 1 0 C1.33 4.29 1.66 8.58 2 13 C1.34 13 0.68 13 0 13 C0 17.29 0 21.58 0 26 C-0.33 26 -0.66 26 -1 26 C-1.02907084 22.41668375 -1.04682263 18.83339792 -1.0625 15.25 C-1.07087891 14.23421875 -1.07925781 13.2184375 -1.08789062 12.171875 C-1.09111328 11.1921875 -1.09433594 10.2125 -1.09765625 9.203125 C-1.10289307 8.30239258 -1.10812988 7.40166016 -1.11352539 6.47363281 C-1.00762312 4.16610196 -0.65132813 2.20865595 0 0 Z " fill="#BDBDBB" transform="translate(206,230)"/>
<path d="M0 0 C0.66 0.33 1.32 0.66 2 1 C-1.66666667 4.66666667 -5.33333333 8.33333333 -9 12 C-9.99 11.67 -10.98 11.34 -12 11 C-10.56564079 9.5385774 -9.12739414 8.08096951 -7.6875 6.625 C-6.88699219 5.81289062 -6.08648437 5.00078125 -5.26171875 4.1640625 C-3 2 -3 2 0 0 Z " fill="#B6B6B5" transform="translate(184,105)"/>
<path d="M0 0 C6.29785459 0.94592282 10.96066973 2.02158136 16 6 C12.05131377 7.31622874 10.64928624 6.30180315 6.875 4.6875 C5.26238281 4.01267578 5.26238281 4.01267578 3.6171875 3.32421875 C1 2 1 2 0 0 Z " fill="#ACACAC" transform="translate(369,419)"/>
<path d="M0 0 C0 2.31 0 4.62 0 7 C1.98 7.66 3.96 8.32 6 9 C5.34 9.66 4.68 10.32 4 11 C4 10.34 4 9.68 4 9 C3.236875 9.061875 2.47375 9.12375 1.6875 9.1875 C-1 9 -1 9 -2.8125 7.8125 C-4.36678206 5.44017475 -4.22537188 3.77958655 -4 1 C-1 0 -1 0 0 0 Z " fill="#686867" transform="translate(191,291)"/>
<path d="M0 0 C2.64465038 3.1254959 3.84414715 6.08788267 5 10 C7.31 10.33 9.62 10.66 12 11 C12 11.33 12 11.66 12 12 C10.906875 11.979375 9.81375 11.95875 8.6875 11.9375 C5.05615809 11.81455548 5.05615809 11.81455548 2 13 C2 10.69 2 8.38 2 6 C1.34 6 0.68 6 0 6 C0 4.02 0 2.04 0 0 Z " fill="#E5E5E3" transform="translate(272,258)"/>
<path d="M0 0 C0 0.66 0 1.32 0 2 C0.66 2 1.32 2 2 2 C1.67 2.99 1.34 3.98 1 5 C0.1646875 4.505 0.1646875 4.505 -0.6875 4 C-3.38858329 2.83196398 -5.08537214 2.62632976 -8 3 C-9.81476003 4.39585785 -9.81476003 4.39585785 -11 6 C-11 4.35 -11 2.7 -11 1 C-7.32589215 -0.17571451 -3.83070817 -0.07366746 0 0 Z " fill="#8B8B8A" transform="translate(213,280)"/>
<path d="M0 0 C2.31 0 4.62 0 7 0 C7 2.31 7 4.62 7 7 C4.13275314 6.42655063 3.1385485 6.1385485 1 4 C0.375 1.875 0.375 1.875 0 0 Z " fill="#EDEDEB" transform="translate(272,75)"/>
<path d="M0 0 C1.74216797 0.02707031 1.74216797 0.02707031 3.51953125 0.0546875 C4.39996094 0.07789063 5.28039062 0.10109375 6.1875 0.125 C6.1875 0.455 6.1875 0.785 6.1875 1.125 C4.70636719 1.16367187 4.70636719 1.16367187 3.1953125 1.203125 C1.91398437 1.25984375 0.63265625 1.3165625 -0.6875 1.375 C-1.96367187 1.42140625 -3.23984375 1.4678125 -4.5546875 1.515625 C-7.90438105 1.75055056 -7.90438105 1.75055056 -9.2578125 4.171875 C-9.44085938 4.81640625 -9.62390625 5.4609375 -9.8125 6.125 C-9.8125 5.465 -9.8125 4.805 -9.8125 4.125 C-11.4625 4.455 -13.1125 4.785 -14.8125 5.125 C-10.67132566 0.32995602 -6.10372263 -0.12330753 0 0 Z " fill="#838481" transform="translate(439.8125,340.875)"/>
<path d="M0 0 C2.25 2.5 2.25 2.5 4 5 C0.04 5 -3.92 5 -8 5 C-6.44843568 0.34530705 -4.78780941 0 0 0 Z " fill="#E7E7E5" transform="translate(270,276)"/>
<path d="M0 0 C1.32 0.66 2.64 1.32 4 2 C3.01 2.495 3.01 2.495 2 3 C2.66 4.65 3.32 6.3 4 8 C0.7 8.66 -2.6 9.32 -6 10 C-5.67 9.34 -5.34 8.68 -5 8 C-1.9375 7.375 -1.9375 7.375 1 7 C0.67 4.69 0.34 2.38 0 0 Z " fill="#81817F" transform="translate(287,292)"/>
<path d="M0 0 C0 2.31 0 4.62 0 7 C2.31 7 4.62 7 7 7 C3.1496895 9.56687367 1.41430237 8.83288724 -3 8 C-3 5.69 -3 3.38 -3 1 C-1 0 -1 0 0 0 Z " fill="#D7D7D4" transform="translate(259,287)"/>
<path d="M0 0 C2.31 0 4.62 0 7 0 C8.35439668 2.70879335 8.06501451 5.00933268 8 8 C7.236875 7.175 6.47375 6.35 5.6875 5.5 C3.24565858 2.65944803 3.24565858 2.65944803 0 3 C0 2.01 0 1.02 0 0 Z " fill="#C1C1C0" transform="translate(243,270)"/>
<path d="M0 0 C0.99 0 1.98 0 3 0 C2.88652381 1.97986082 2.7589065 3.95891598 2.625 5.9375 C2.52058594 7.59072266 2.52058594 7.59072266 2.4140625 9.27734375 C2.27742188 10.17582031 2.14078125 11.07429687 2 12 C1.01 12.495 1.01 12.495 0 13 C0 8.71 0 4.42 0 0 Z " fill="#FBFBF9" transform="translate(266,149)"/>
<path d="M0 0 C0.33 0 0.66 0 1 0 C1 4.62 1 9.24 1 14 C0.34 14 -0.32 14 -1 14 C-1.66 14.99 -2.32 15.98 -3 17 C-2.25339288 11.27601207 -1.17122859 5.65146223 0 0 Z " fill="#DFDFDD" transform="translate(212,117)"/>
<path d="M0 0 C3.39417765 3.12621626 5.6062718 5.56541027 7 10 C4.625 9.5 4.625 9.5 2 8 C0.91758097 5.33474712 0.50727893 2.8592085 0 0 Z " fill="#B2B2B1" transform="translate(461,349)"/>
<path d="M0 0 C0.33 0 0.66 0 1 0 C1.05437607 1.58294782 1.09296271 3.16644256 1.125 4.75 C1.14820313 5.63171875 1.17140625 6.5134375 1.1953125 7.421875 C1 10 1 10 -1 14 C-1.66 11.03 -2.32 8.06 -3 5 C-2.34 4.67 -1.68 4.34 -1 4 C-0.34786708 1.97536745 -0.34786708 1.97536745 0 0 Z " fill="#EBEBE9" transform="translate(238,104)"/>
<path d="M0 0 C0.66 0.99 1.32 1.98 2 3 C2.99 3.66 3.98 4.32 5 5 C3.95199219 5.07347656 3.95199219 5.07347656 2.8828125 5.1484375 C1.97273438 5.22320312 1.06265625 5.29796875 0.125 5.375 C-1.23238281 5.47941406 -1.23238281 5.47941406 -2.6171875 5.5859375 C-5.17941903 5.79568132 -5.17941903 5.79568132 -7 8 C-7.33 6.68 -7.66 5.36 -8 4 C-5.69 4 -3.38 4 -1 4 C-1.33 3.01 -1.66 2.02 -2 1 C-1.34 0.67 -0.68 0.34 0 0 Z " fill="#E8E6E4" transform="translate(270,80)"/>
<path d="M0 0 C0.99 0.33 1.98 0.66 3 1 C2.67 1.99 2.34 2.98 2 4 C1.34 4 0.68 4 0 4 C-0.66 5.65 -1.32 7.3 -2 9 C-2.66 9 -3.32 9 -4 9 C-4 7.68 -4 6.36 -4 5 C-3.34 5 -2.68 5 -2 5 C-1.7834375 4.0409375 -1.7834375 4.0409375 -1.5625 3.0625 C-1 1 -1 1 0 0 Z " fill="#B0B0AE" transform="translate(263,280)"/>
<path d="M0 0 C0.33 0 0.66 0 1 0 C1.05416188 1.60379341 1.09286638 3.20811406 1.125 4.8125 C1.14820313 5.70582031 1.17140625 6.59914062 1.1953125 7.51953125 C1 10 1 10 -1 13 C-2.30765478 9.07703567 -2.1971417 6.13997567 -2 2 C-1.34 1.34 -0.68 0.68 0 0 Z " fill="#DFDEDE" transform="translate(253,155)"/>
<path d="M0 0 C0.33 0.99 0.66 1.98 1 3 C1.99 3.33 2.98 3.66 4 4 C4 6.97 4 9.94 4 13 C1.27835324 10.27835324 0.89427524 7.70485455 0 4 C0 2.68 0 1.36 0 0 Z " fill="#9F9F9F" transform="translate(321,337)"/>
<path d="M0 0 C2.8823175 2.8823175 2.93185849 4.97965076 3 9 C0.5625 11.9375 0.5625 11.9375 -2 14 C-1.67 12.989375 -1.34 11.97875 -1 10.9375 C0.07001321 7.24520089 0.15704155 3.84751793 0 0 Z " fill="#878785" transform="translate(179,264)"/>
<path d="M0 0 C0.99 0 1.98 0 3 0 C2.67 3.96 2.34 7.92 2 12 C0 10 0 10 -0.1953125 7.6171875 C-0.17210937 6.71226562 -0.14890625 5.80734375 -0.125 4.875 C-0.10695312 3.96492187 -0.08890625 3.05484375 -0.0703125 2.1171875 C-0.04710937 1.41851562 -0.02390625 0.71984375 0 0 Z " fill="#CFCFCD" transform="translate(255,190)"/>
<path d="M0 0 C-0.33 0.99 -0.66 1.98 -1 3 C-1 2.34 -1 1.68 -1 1 C-2.19625 1.45375 -3.3925 1.9075 -4.625 2.375 C-8.05872327 3.66417368 -11.51135543 4.86619051 -15 6 C-10.45815256 0.95350285 -6.74558506 -0.31374814 0 0 Z " fill="#747473" transform="translate(203,97)"/>
<path d="M0 0 C0.66 0.33 1.32 0.66 2 1 C0.02 3.31 -1.96 5.62 -4 8 C-4.66 7.67 -5.32 7.34 -6 7 C-2.25 1.125 -2.25 1.125 0 0 Z " fill="#9B9B9B" transform="translate(193,302)"/>
<path d="M0 0 C2.31 1.65 4.62 3.3 7 5 C3 6 3 6 1 5 C1 5.66 1 6.32 1 7 C0.34 7 -0.32 7 -1 7 C-0.67 4.69 -0.34 2.38 0 0 Z " fill="#B1B1B0" transform="translate(387,401)"/>
<path d="M0 0 C0.66 0.33 1.32 0.66 2 1 C2 3.31 2 5.62 2 8 C1.01 8.33 0.02 8.66 -1 9 C-1.125 2.25 -1.125 2.25 0 0 Z " fill="#FBFBF9" transform="translate(210,135)"/>
<path d="M0 0 C2.92879371 0.62759865 5.36095629 1.58622659 8 3 C6.02 3.99 6.02 3.99 4 5 C4 4.34 4 3.68 4 3 C2.35 3.66 0.7 4.32 -1 5 C-0.67 3.35 -0.34 1.7 0 0 Z " fill="#B1AFAE" transform="translate(284,97)"/>
<path d="M0 0 C2.16321167 3.24481751 3.6314591 6.35055759 5 10 C4.67 10.99 4.34 11.98 4 13 C2 10 2 10 2 7 C1.01 6.67 0.02 6.34 -1 6 C-0.67 4.02 -0.34 2.04 0 0 Z " fill="#9E9E9E" transform="translate(371,374)"/>
<path d="M0 0 C4.3890815 0.51035831 7.33708062 1.52214277 11 4 C8 5 8 5 4 5 C4 4.01 4 3.02 4 2 C2.68 1.34 1.36 0.68 0 0 Z " fill="#9C9C9C" transform="translate(52,342)"/>
<path d="M0 0 C0.33 0 0.66 0 1 0 C0.67 3.96 0.34 7.92 0 12 C-1.99795425 8.00409149 -2.3757916 6.32160334 -2 2 C-1.34 1.34 -0.68 0.68 0 0 Z " fill="#E8E7E6" transform="translate(253,149)"/>
<path d="M0 0 C-2.95183101 2.95183101 -5.95511947 3.08663988 -10 4 C-10 3.01 -10 2.02 -10 1 C-6.61981469 -0.04005702 -3.5219721 -0.08004482 0 0 Z " fill="#ACACAB" transform="translate(214,306)"/>
<path d="M0 0 C4.71947195 2.42024202 4.71947195 2.42024202 5.9375 4.9375 C6.01434368 7.47334158 5.30245593 8.85477846 4 11 C4 8.69 4 6.38 4 4 C2.68 3.67 1.36 3.34 0 3 C0 2.01 0 1.02 0 0 Z " fill="#878787" transform="translate(290,308)"/>
<path d="M0 0 C0.33 0.66 0.66 1.32 1 2 C-2.625 6.875 -2.625 6.875 -6 8 C-4.55746343 4.63408134 -2.66735273 2.48952921 0 0 Z " fill="#A5A5A3" transform="translate(423,346)"/>
<path d="M0 0 C0 0.66 0 1.32 0 2 C-3.69541586 2.95024979 -6.30458414 2.95024979 -10 2 C-6.3558226 -0.4294516 -4.28758728 -0.16179575 0 0 Z " fill="#CDCDCB" transform="translate(237,259)"/>
<path d="M0 0 C0.66 0.33 1.32 0.66 2 1 C0.02 5.455 0.02 5.455 -2 10 C-2.66 8.68 -3.32 7.36 -4 6 C-2.68 4.02 -1.36 2.04 0 0 Z " fill="#919191" transform="translate(124,253)"/>
<path d="M0 0 C0.33 0.66 0.66 1.32 1 2 C3.02463255 2.65213292 3.02463255 2.65213292 5 3 C5 3.66 5 4.32 5 5 C-0.75 3.25 -0.75 3.25 -3 1 C-2.01 0.67 -1.02 0.34 0 0 Z " fill="#AAAAAA" transform="translate(50,419)"/>
<path d="M0 0 C1.98 0.66 3.96 1.32 6 2 C5.67 4.31 5.34 6.62 5 9 C4.67 9 4.34 9 4 9 C4 7.02 4 5.04 4 3 C2.68 2.67 1.36 2.34 0 2 C0 1.34 0 0.68 0 0 Z " fill="#8B8B8B" transform="translate(203,310)"/>
<path d="M0 0 C1 2 1 2 0.0625 5.125 C-0.288125 6.07375 -0.63875 7.0225 -1 8 C-1.99 8 -2.98 8 -4 8 C-2.25 2.25 -2.25 2.25 0 0 Z " fill="#ACACAA" transform="translate(163,127)"/>
<path d="M0 0 C0.66 0.33 1.32 0.66 2 1 C-0.52788007 3.79872437 -2.20411134 5.45773019 -6 6 C-4 4 -2 2 0 0 Z " fill="#9F9F9F" transform="translate(184,105)"/>
</svg>
